<svg width="40" height="40" viewBox="0 0 40 40" fill="none" xmlns="http://www.w3.org/2000/svg">
<path d="M30.355 2H9.00164C4.7665 2 1.3335 5.41728 1.3335 9.63303V30.8886C1.3335 35.1044 4.7665 38.5217 9.00164 38.5217H30.355C34.5902 38.5217 38.0232 35.1044 38.0232 30.8886V9.63303C38.0232 5.41728 34.5902 2 30.355 2V2ZM7.66426 35.8098C7.66426 36.0812 7.44268 36.3017 7.17003 36.3017H5.20893C4.93628 36.3017 4.7147 36.0812 4.7147 35.8098V33.8576C4.7147 33.5862 4.93628 33.3657 5.20893 33.3657H7.17003C7.44268 33.3657 7.66426 33.5862 7.66426 33.8576V35.8098ZM7.66426 6.66403C7.66426 6.93544 7.44268 7.156 7.17003 7.156H5.20893C4.93628 7.156 4.7147 6.93544 4.7147 6.66403V4.71191C4.7147 4.44051 4.93628 4.21994 5.20893 4.21994H7.17003C7.44268 4.21994 7.66426 4.44051 7.66426 4.71191V6.66403ZM13.0598 35.8098C13.0598 36.0812 12.8382 36.3017 12.5656 36.3017H10.6045C10.3318 36.3017 10.1102 36.0812 10.1102 35.8098V33.8576C10.1102 33.5862 10.3318 33.3657 10.6045 33.3657H12.5656C12.8382 33.3657 13.0598 33.5862 13.0598 33.8576V35.8098ZM13.0598 6.66403C13.0598 6.93544 12.8382 7.156 12.5656 7.156H10.6045C10.3318 7.156 10.1102 6.93544 10.1102 6.66403V4.71191C10.1102 4.44051 10.3318 4.21994 10.6045 4.21994H12.5656C12.8382 4.21994 13.0598 4.44051 13.0598 4.71191V6.66403ZM18.4553 35.8098C18.4553 36.0812 18.2338 36.3017 17.9611 36.3017H16C15.7274 36.3017 15.5058 36.0812 15.5058 35.8098V33.8576C15.5058 33.5862 15.7274 33.3657 16 33.3657H17.9611C18.2338 33.3657 18.4553 33.5862 18.4553 33.8576V35.8098ZM18.4553 6.66403C18.4553 6.93544 18.2338 7.156 17.9611 7.156H16C15.7274 7.156 15.5058 6.93544 15.5058 6.66403V4.71191C15.5058 4.44051 15.7274 4.21994 16 4.21994H17.9611C18.2338 4.21994 18.4553 4.44051 18.4553 4.71191V6.66403ZM23.8509 35.8098C23.8509 36.0812 23.6293 36.3017 23.3566 36.3017H21.3955C21.1229 36.3017 20.9013 36.0812 20.9013 35.8098V33.8576C20.9013 33.5862 21.1229 33.3657 21.3955 33.3657H23.3566C23.6293 33.3657 23.8509 33.5862 23.8509 33.8576V35.8098ZM23.8509 6.66403C23.8509 6.93544 23.6293 7.156 23.3566 7.156H21.3955C21.1229 7.156 20.9013 6.93544 20.9013 6.66403V4.71191C20.9013 4.44051 21.1229 4.21994 21.3955 4.21994H23.3566C23.6293 4.21994 23.8509 4.44051 23.8509 4.71191V6.66403ZM29.2464 35.8098C29.2464 36.0812 29.0248 36.3017 28.7522 36.3017H26.7911C26.5184 36.3017 26.2969 36.0812 26.2969 35.8098V33.8576C26.2969 33.5862 26.5184 33.3657 26.7911 33.3657H28.7522C29.0248 33.3657 29.2464 33.5862 29.2464 33.8576V35.8098ZM29.2464 6.66403C29.2464 6.93544 29.0248 7.156 28.7522 7.156H26.7911C26.5184 7.156 26.2969 6.93544 26.2969 6.66403V4.71191C26.2969 4.44051 26.5184 4.21994 26.7911 4.21994H28.7522C29.0248 4.21994 29.2464 4.44051 29.2464 4.71191V6.66403ZM34.642 35.8098C34.642 36.0812 34.4204 36.3017 34.1477 36.3017H32.1866C31.914 36.3017 31.6924 36.0812 31.6924 35.8098V33.8576C31.6924 33.5862 31.914 33.3657 32.1866 33.3657H34.1477C34.4204 33.3657 34.642 33.5862 34.642 33.8576V35.8098ZM34.642 6.66403C34.642 6.93544 34.4204 7.156 34.1477 7.156H32.1866C31.914 7.156 31.6924 6.93544 31.6924 6.66403V4.71191C31.6924 4.44051 31.914 4.21994 32.1866 4.21994H34.1477C34.4204 4.21994 34.642 4.44051 34.642 4.71191V6.66403Z" fill="url(#paint0_linear_3491_48770)"/>
<path d="M1.3335 26.6794V30.8887C1.3335 35.1045 4.7665 38.5218 9.00164 38.5218H30.355C34.5902 38.5218 38.0232 35.1045 38.0232 30.8887V26.6794H1.3335ZM7.66426 35.8099C7.66426 36.0813 7.44268 36.3018 7.17003 36.3018H5.20893C4.93628 36.3018 4.7147 36.0813 4.7147 35.8099V33.8577C4.7147 33.5863 4.93628 33.3658 5.20893 33.3658H7.17003C7.44268 33.3658 7.66426 33.5863 7.66426 33.8577V35.8099ZM13.0598 35.8099C13.0598 36.0813 12.8382 36.3018 12.5656 36.3018H10.6045C10.3318 36.3018 10.1102 36.0813 10.1102 35.8099V33.8577C10.1102 33.5863 10.3318 33.3658 10.6045 33.3658H12.5656C12.8382 33.3658 13.0598 33.5863 13.0598 33.8577V35.8099ZM18.4553 35.8099C18.4553 36.0813 18.2338 36.3018 17.9611 36.3018H16C15.7274 36.3018 15.5058 36.0813 15.5058 35.8099V33.8577C15.5058 33.5863 15.7274 33.3658 16 33.3658H17.9611C18.2338 33.3658 18.4553 33.5863 18.4553 33.8577V35.8099ZM23.8509 35.8099C23.8509 36.0813 23.6293 36.3018 23.3566 36.3018H21.3955C21.1229 36.3018 20.9013 36.0813 20.9013 35.8099V33.8577C20.9013 33.5863 21.1229 33.3658 21.3955 33.3658H23.3566C23.6293 33.3658 23.8509 33.5863 23.8509 33.8577V35.8099ZM29.2464 35.8099C29.2464 36.0813 29.0248 36.3018 28.7522 36.3018H26.7911C26.5184 36.3018 26.2969 36.0813 26.2969 35.8099V33.8577C26.2969 33.5863 26.5184 33.3658 26.7911 33.3658H28.7522C29.0248 33.3658 29.2464 33.5863 29.2464 33.8577V35.8099ZM34.642 35.8099C34.642 36.0813 34.4204 36.3018 34.1477 36.3018H32.1866C31.914 36.3018 31.6924 36.0813 31.6924 35.8099V33.8577C31.6924 33.5863 31.914 33.3658 32.1866 33.3658H34.1477C34.4204 33.3658 34.642 33.5863 34.642 33.8577V35.8099Z" fill="url(#paint1_linear_3491_48770)"/>
<path d="M16.7707 29.5514C14.2922 29.5513 12.2759 27.5569 12.2759 25.1055V14.7754C12.2759 12.3239 14.2922 10.3295 16.7707 10.3295C17.548 10.3295 18.3223 10.537 19.0099 10.9297L28.0542 16.0947C29.4597 16.8974 30.2989 18.3351 30.2989 19.9404C30.2989 21.5458 29.4597 22.9835 28.0542 23.7861L19.0099 28.9512C18.3223 29.3438 17.548 29.5514 16.7707 29.5514C16.7707 29.5514 16.7707 29.5514 16.7707 29.5514Z" fill="url(#paint2_linear_3491_48770)"/>
<path d="M38.6664 31.5009V27.1723L30.6406 19.3335C30.3485 18.9866 29.9851 18.6801 29.5496 18.4345L19.5161 12.7768C16.8702 11.2848 13.563 13.1498 13.563 16.1337V27.4491C13.563 28.6902 14.1355 29.7374 14.9943 30.4304L18.423 33.7793H19.8596C20.1152 33.7793 20.3229 33.9821 20.3229 34.2318V35.6349L23.2787 38.5217H31.4781C35.4482 38.5217 38.6664 35.3785 38.6664 31.5009ZM32.7318 34.2318C32.7318 33.9821 32.9395 33.7793 33.1951 33.7793H35.0335C35.2891 33.7793 35.4968 33.9821 35.4968 34.2318V36.0273C35.4968 36.2769 35.2891 36.4798 35.0335 36.4798H33.1951C32.9395 36.4798 32.7318 36.2769 32.7318 36.0273V34.2318ZM25.3809 36.0273C25.3809 36.2769 25.1732 36.4798 24.9176 36.4798H23.0792C22.8236 36.4798 22.6159 36.2769 22.6159 36.0273V34.2318C22.6159 33.9821 22.8236 33.7793 23.0792 33.7793H24.9176C25.1732 33.7793 25.3809 33.9821 25.3809 34.2318V36.0273ZM30.4388 36.0273C30.4388 36.2769 30.2311 36.4798 29.9755 36.4798H28.1371C27.8815 36.4798 27.6738 36.2769 27.6738 36.0273V34.2318C27.6738 33.9821 27.8815 33.7793 28.1371 33.7793H29.9755C30.2311 33.7793 30.4388 33.9821 30.4388 34.2318V36.0273Z" fill="url(#paint3_linear_3491_48770)"/>
<path d="M27.688 16.8886L18.8232 11.8894C16.4855 10.5711 13.5635 12.219 13.5635 14.8556V24.854C13.5635 27.4906 16.4856 29.1385 18.8232 27.8202L27.688 22.821C30.0257 21.5027 30.0257 18.2069 27.688 16.8886Z" fill="url(#paint4_linear_3491_48770)"/>
<path d="M27.688 16.8886L18.8232 11.8894C16.4855 10.5711 13.5635 12.219 13.5635 14.8556V24.854C13.5635 27.4906 16.4856 29.1385 18.8232 27.8202L27.688 22.821C30.0257 21.5027 30.0257 18.2069 27.688 16.8886Z" fill="url(#paint5_linear_3491_48770)"/>
<defs>
<linearGradient id="paint0_linear_3491_48770" x1="4.13918" y1="4.79283" x2="32.9741" y2="33.7604" gradientUnits="userSpaceOnUse">
<stop stop-color="#DC4955"/>
<stop offset="1" stop-color="#C4237C"/>
</linearGradient>
<linearGradient id="paint1_linear_3491_48770" x1="19.6783" y1="28.2814" x2="19.6783" y2="37.4521" gradientUnits="userSpaceOnUse">
<stop stop-color="#8A1958" stop-opacity="0"/>
<stop offset="1" stop-color="#8A1958"/>
</linearGradient>
<linearGradient id="paint2_linear_3491_48770" x1="21.2874" y1="28.2988" x2="21.2874" y2="12.3634" gradientUnits="userSpaceOnUse">
<stop stop-color="#DC4955"/>
<stop offset="1" stop-color="#C4237C"/>
</linearGradient>
<linearGradient id="paint3_linear_3491_48770" x1="34.3827" y1="35.5175" x2="22.3064" y2="24.234" gradientUnits="userSpaceOnUse">
<stop stop-color="#8A1958" stop-opacity="0"/>
<stop offset="1" stop-color="#8A1958"/>
</linearGradient>
<linearGradient id="paint4_linear_3491_48770" x1="15.9929" y1="16.9718" x2="23.3693" y2="24.5236" gradientUnits="userSpaceOnUse">
<stop stop-color="#EEF4FF"/>
<stop offset="1" stop-color="#CFE7FD"/>
</linearGradient>
<linearGradient id="paint5_linear_3491_48770" x1="21.5753" y1="22.4862" x2="23.0689" y2="25.3092" gradientUnits="userSpaceOnUse">
<stop stop-color="#8AAADC" stop-opacity="0"/>
<stop offset="1" stop-color="#8AAADC"/>
</linearGradient>
</defs>
</svg>
