<svg width="40" height="40" viewBox="0 0 40 40" fill="none" xmlns="http://www.w3.org/2000/svg">
<path d="M38.6666 25.4511V37.4327C38.6666 37.9987 38.0612 38.3857 37.5029 38.1776C34.8177 37.1784 32.0759 36.6792 29.3333 36.6792C26.4181 36.6792 23.5037 37.2436 20.6583 38.3732C20.4487 38.4564 20.2257 38.5013 20.0001 38.5013C19.7744 38.5013 19.5513 38.4564 19.3415 38.3732C13.8197 36.1819 8.03559 36.1167 2.49712 38.1777C1.93888 38.3856 1.3335 37.9986 1.3335 37.4327V25.4511C1.3335 25.0435 1.58948 24.6727 1.98851 24.5143C4.83556 23.384 7.75032 22.8198 10.6659 22.8198C13.8058 22.8198 16.9466 23.4748 20 24.7849C25.8902 22.258 32.0999 22.1681 38.0116 24.5143C38.4106 24.6727 38.6666 25.0435 38.6666 25.4511Z" fill="url(#paint0_linear_3491_48868)"/>
<path d="M37.5029 36.5368C34.8177 35.5375 32.0759 35.0383 29.3333 35.0383C26.4181 35.0383 23.5037 35.6027 20.6583 36.7323C20.4487 36.8155 20.2257 36.8605 20.0001 36.8605C19.7744 36.8605 19.5513 36.8155 19.3415 36.7323C13.8197 34.5411 8.03559 34.4759 2.49712 36.5369C1.93888 36.7449 1.3335 36.3578 1.3335 35.7919V37.4328C1.3335 37.9988 1.93888 38.3859 2.49719 38.1778C8.03566 36.1169 13.8197 36.182 19.3416 38.3733C19.5514 38.4566 19.7745 38.5015 20.0002 38.5015C20.2258 38.5015 20.4488 38.4566 20.6584 38.3733C23.5037 37.2438 26.4182 36.6794 29.3334 36.6794C32.076 36.6794 34.8178 37.1785 37.503 38.1778C38.0613 38.3859 38.6667 37.9988 38.6667 37.4328V35.7919C38.6666 36.3578 38.0612 36.7449 37.5029 36.5368Z" fill="url(#paint1_linear_3491_48868)"/>
<path d="M37.5959 25.0232V34.9443C37.5959 35.5103 37.0257 35.8973 36.4991 35.6893C33.968 34.69 31.3838 34.1908 28.7987 34.1908C26.3056 34.1908 23.8132 34.6551 21.3688 35.5852C20.9314 35.7515 20.4686 35.8417 20.0006 35.8417C19.5321 35.8417 19.0689 35.7512 18.631 35.5846C13.6532 33.6919 8.47307 33.7269 3.50213 35.6892C2.97552 35.8972 2.40527 35.5102 2.40527 34.9442V25.0231C2.40527 24.6155 2.64677 24.2448 3.02266 24.0863C5.70618 22.956 8.45477 22.3918 11.2026 22.3918C14.1626 22.3918 17.1219 23.0468 20.0006 24.3569C25.5527 21.83 31.406 21.7401 36.9786 24.0863C37.3545 24.2448 37.5959 24.6156 37.5959 25.0232Z" fill="url(#paint2_linear_3491_48868)"/>
<path d="M37.5959 25.0232V34.9443C37.5959 35.5103 37.0257 35.8973 36.4991 35.6893C33.968 34.69 31.3838 34.1908 28.7987 34.1908C26.3056 34.1908 23.8132 34.6551 21.3688 35.5852C20.9314 35.7515 20.4686 35.8417 20.0006 35.8417C19.5321 35.8417 19.0689 35.7512 18.631 35.5846C13.6532 33.6919 8.47307 33.7269 3.50213 35.6892C2.97552 35.8972 2.40527 35.5102 2.40527 34.9442V25.0231C2.40527 24.6155 2.64677 24.2448 3.02266 24.0863C5.70618 22.956 8.45477 22.3918 11.2026 22.3918C14.1626 22.3918 17.1219 23.0468 20.0006 24.3569C25.5527 21.83 31.406 21.7401 36.9786 24.0863C37.3545 24.2448 37.5959 24.6156 37.5959 25.0232Z" fill="url(#paint3_linear_3491_48868)"/>
<path d="M37.5959 24.3555V34.2765C37.5959 34.8425 37.0257 35.2296 36.4991 35.0215C33.968 34.0222 31.3838 33.5231 28.7987 33.5231C26.3056 33.5231 23.8132 33.9874 21.3688 34.9174C20.9314 35.0838 20.4686 35.1739 20.0006 35.1739C19.5321 35.1739 19.0689 35.0835 18.631 34.9169C13.6532 33.0241 8.47307 33.0592 3.50213 35.0215C2.97552 35.2295 2.40527 34.8425 2.40527 34.2765V24.3554C2.40527 23.9478 2.64677 23.577 3.02266 23.4186C5.70618 22.2883 8.45477 21.7241 11.2026 21.7241C14.1626 21.7241 17.1219 22.3791 20.0006 23.6892C25.5527 21.1623 31.406 21.0724 36.9786 23.4186C37.3545 23.5771 37.5959 23.9479 37.5959 24.3555Z" fill="url(#paint4_linear_3491_48868)"/>
<path d="M2.40527 23.8418V33.7629C2.40527 34.3289 2.97552 34.7159 3.50213 34.5078C6.03324 33.5085 8.61742 33.0093 11.2025 33.0093C13.6956 33.0093 16.188 33.4737 18.6324 34.4037C19.0698 34.5701 19.5326 34.6602 20.0006 34.6602C20.4691 34.6602 20.9323 34.5697 21.3703 34.4032C26.348 32.5104 31.5281 32.5455 36.4991 34.5077C37.0257 34.7157 37.5959 34.3287 37.5959 33.7628V23.8417C37.5959 23.4341 37.3545 23.0634 36.9786 22.9049C34.295 21.7746 31.5464 21.2104 28.7987 21.2104C25.8386 21.2104 22.8793 21.8654 20.0006 23.1755C14.4486 20.6486 8.59517 20.5587 3.02259 22.9049C2.64677 23.0634 2.40527 23.4342 2.40527 23.8418Z" fill="url(#paint5_linear_3491_48868)"/>
<path d="M3.02229 22.0625C2.64677 22.2207 2.40527 22.5917 2.40527 22.9992V32.92C2.40527 33.4862 2.97588 33.8733 3.5025 33.6653C8.93117 31.5214 14.6087 31.6771 20.0006 34.1316C20.0006 26.1467 20.0006 30.3178 20.0006 22.3329C14.4491 19.8062 8.59583 19.7155 3.02229 22.0625Z" fill="url(#paint6_linear_3491_48868)"/>
<path d="M36.9783 22.0626C31.4053 19.716 25.5521 19.8056 20 22.3329V34.1316C25.3926 31.6768 31.0701 31.5218 36.4981 33.6654C37.0247 33.8734 37.5953 33.4864 37.5953 32.9201C37.5953 25.5612 37.5953 30.3582 37.5953 22.9993C37.5954 22.5917 37.3538 22.2207 36.9783 22.0626Z" fill="url(#paint7_linear_3491_48868)"/>
<path d="M4.13186 23.6467C3.78086 23.7945 3.55518 24.1412 3.55518 24.522V32.9992C3.55518 33.5284 4.08845 33.8901 4.58066 33.6957C9.6543 31.692 14.9605 31.8375 19.9999 34.1315C19.9999 26.6687 19.9999 31.362 19.9999 23.8993C14.8115 21.5379 9.341 21.4531 4.13186 23.6467Z" fill="url(#paint8_linear_3491_48868)"/>
<path d="M5.05057 23.9582C6.60092 23.4089 8.16795 23.0669 9.74121 22.9327C9.8874 22.9202 10.0126 23.0371 10.0126 23.1838V23.7818C10.0126 23.9126 9.91221 24.0205 9.78191 24.032C8.25184 24.1669 6.72807 24.5114 5.22025 25.0646C5.05657 25.1246 4.8833 25.0028 4.8833 24.8285V24.196C4.88323 24.0895 4.95021 23.9938 5.05057 23.9582Z" fill="#BEC3D2"/>
<path d="M13.9056 23.2834V23.8834C13.9056 24.0355 13.7715 24.1537 13.6209 24.1325C12.7295 24.0072 11.8378 23.953 10.948 23.9698C10.8066 23.9724 10.6899 23.8599 10.6899 23.7185V23.1236C10.6899 22.987 10.799 22.8742 10.9356 22.8717C11.8527 22.8548 12.7707 22.9088 13.6889 23.0337C13.8132 23.0506 13.9056 23.1579 13.9056 23.2834Z" fill="#BEC3D2"/>
<path d="M16.9992 23.9792V24.6039C16.9992 24.7742 16.8331 24.8962 16.6713 24.8433C16.0461 24.6389 15.4149 24.4697 14.7839 24.3368C14.6672 24.3122 14.5835 24.2103 14.5835 24.0912V23.4826C14.5835 23.3244 14.7281 23.2042 14.8832 23.2358C15.5319 23.3679 16.1806 23.5359 16.8238 23.7388C16.9283 23.7718 16.9992 23.8696 16.9992 23.9792Z" fill="#BEC3D2"/>
<path d="M5.05049 26.2708C5.46899 26.1227 5.88895 25.9895 6.31045 25.8715C6.47142 25.8264 6.63129 25.9463 6.63129 26.1134V26.7327C6.63129 26.845 6.55685 26.9427 6.44909 26.9739C6.03792 27.0927 5.62791 27.2269 5.21996 27.3765C5.05642 27.4364 4.8833 27.3144 4.8833 27.1402V26.5084C4.88323 26.4019 4.95013 26.3063 5.05049 26.2708Z" fill="#BEC3D2"/>
<path d="M12.2312 25.448V26.0431C12.2312 26.1855 12.1131 26.3003 11.9709 26.2943C11.6426 26.2805 11.3143 26.2766 10.986 26.2817C9.86076 26.3006 8.7336 26.4331 7.61419 26.6778C7.45717 26.7121 7.30908 26.5907 7.30908 26.4299V25.824C7.30908 25.7054 7.39187 25.6021 7.5079 25.5775C8.65622 25.335 9.81194 25.203 10.9677 25.1836C11.3087 25.1777 11.6502 25.1819 11.9914 25.1961C12.1256 25.2018 12.2312 25.3136 12.2312 25.448Z" fill="#BEC3D2"/>
<path d="M17 26.2918V26.9161C17 27.0864 16.8339 27.2081 16.6719 27.1553C15.5036 26.774 14.321 26.5161 13.1349 26.3837C13.0071 26.3695 12.9102 26.2627 12.9102 26.1341V25.5356C12.9102 25.3868 13.0388 25.2694 13.1867 25.2853C14.4064 25.4162 15.6225 25.6726 16.8246 26.0514C16.9291 26.0845 17 26.1822 17 26.2918Z" fill="#BEC3D2"/>
<path d="M5.05064 28.5833C6.59499 28.0364 8.16605 27.6935 9.74151 27.5591C9.88762 27.5467 10.0126 27.6634 10.0126 27.81V28.4076C10.0126 28.5384 9.91221 28.6463 9.78184 28.6578C8.25045 28.7927 6.72258 29.138 5.22018 29.689C5.05657 29.749 4.8833 29.6271 4.8833 29.4528V28.821C4.8833 28.7146 4.95028 28.6189 5.05064 28.5833Z" fill="#BEC3D2"/>
<path d="M16.9985 28.6036V29.2285C16.9985 29.3988 16.8325 29.5207 16.6706 29.4679C14.7969 28.8564 12.8877 28.5633 10.9857 28.5944C10.9727 28.5947 10.9598 28.5949 10.9468 28.5951C10.8058 28.5977 10.6899 28.4849 10.6899 28.3439V27.7485C10.6899 27.6116 10.7995 27.4994 10.9363 27.497C10.9467 27.4968 10.9571 27.4966 10.9674 27.4965C12.9282 27.4638 14.894 27.7552 16.823 28.3633C16.9276 28.3962 16.9985 28.4939 16.9985 28.6036Z" fill="#BEC3D2"/>
<path d="M5.05049 30.895C5.46892 30.7471 5.88888 30.6142 6.31038 30.496C6.47135 30.4509 6.63129 30.5708 6.63129 30.738V31.3572C6.63129 31.4693 6.55699 31.5671 6.44931 31.5982C6.03806 31.7174 5.62799 31.8518 5.21996 32.0014C5.05642 32.0614 4.8833 31.9394 4.8833 31.7652V31.1327C4.88323 31.0261 4.95013 30.9305 5.05049 30.895Z" fill="#BEC3D2"/>
<path d="M13.9061 30.2209V30.821C13.9061 30.9747 13.7697 31.0911 13.6176 31.0698C12.7417 30.9469 11.8633 30.8925 10.986 30.907C9.86076 30.9259 8.7336 31.0578 7.61419 31.3029C7.45717 31.3373 7.30908 31.2159 7.30908 31.0551V30.4492C7.30908 30.3306 7.3918 30.2273 7.50783 30.2028C8.65622 29.9596 9.81194 29.8283 10.9677 29.8089C11.8755 29.794 12.7839 29.8482 13.6895 29.9714C13.8137 29.9884 13.9061 30.0955 13.9061 30.2209Z" fill="#BEC3D2"/>
<path d="M36.4984 33.6653C37.025 33.8733 37.5956 33.4863 37.5956 32.9201C37.5956 25.5611 37.5956 30.3581 37.5956 22.9992C37.5956 22.5917 37.3542 22.2207 36.9786 22.0626C31.4056 19.716 25.5524 19.8056 20.0003 22.3329C18.9666 21.8624 17.9224 21.4767 16.8715 21.1751L16.0258 23.5408C15.9463 23.7634 16.1101 23.979 16.3213 23.9932L24.88 32.5519C28.7525 31.79 32.6869 32.1602 36.4984 33.6653Z" fill="url(#paint9_linear_3491_48868)"/>
<path d="M37.2369 6.39549L33.6045 2.76306L34.8705 1.49703C35.0562 1.31131 35.3463 1.27998 35.5674 1.42192C36.7758 2.19743 37.8026 3.22431 38.5781 4.43265C38.72 4.65372 38.6887 4.94375 38.503 5.12954L37.2369 6.39549Z" fill="url(#paint10_linear_3491_48868)"/>
<path d="M37.2367 6.39529L38.5028 5.12926C38.5329 5.09917 38.5584 5.06616 38.5804 5.03132C38.5657 4.97766 38.5433 4.92547 38.5121 4.87671C37.7366 3.66837 36.7096 2.64149 35.5013 1.86598C35.2802 1.72412 34.9902 1.75537 34.8044 1.94109L33.7935 2.95201L37.2367 6.39529Z" fill="url(#paint11_linear_3491_48868)"/>
<path d="M38.5784 4.43214C38.4471 4.22747 38.3079 4.02851 38.1625 3.83459C38.129 3.92112 38.0778 4.00186 38.0089 4.07082L36.4609 5.61875L37.2372 6.39506L38.5033 5.12903C38.689 4.94324 38.7202 4.65321 38.5784 4.43214Z" fill="url(#paint12_linear_3491_48868)"/>
<path d="M35.3981 8.61255L37.5364 6.47425C37.6197 6.39094 37.6197 6.25596 37.5364 6.17273L33.827 2.46336C33.7437 2.38005 33.6087 2.38005 33.5255 2.46336L31.3872 4.60166L35.3981 8.61255Z" fill="url(#paint13_linear_3491_48868)"/>
<path d="M32.4634 3.52204V11.5465L36.4803 7.53228L32.4668 3.51868L32.4634 3.52204Z" fill="url(#paint14_linear_3491_48868)"/>
<path d="M36.3526 7.44188L32.5581 3.64737C32.368 3.45727 32.368 3.14916 32.5581 2.95905C32.7482 2.76902 33.0563 2.76902 33.2464 2.95905L37.0409 6.75356C37.2309 6.94366 37.2309 7.25177 37.0409 7.44188C36.8508 7.63191 36.5426 7.63191 36.3526 7.44188Z" fill="url(#paint15_linear_3491_48868)"/>
<path d="M18.0164 17.9726L16.0258 23.5407C15.9295 23.8101 16.1897 24.0703 16.4591 23.974L22.0273 21.9834C23.1382 20.8726 19.1273 16.8616 18.0164 17.9726Z" fill="url(#paint16_linear_3491_48868)"/>
<path d="M18.986 18.8951L16.0567 23.79C16.0519 23.798 16.0485 23.8058 16.0444 23.8136C16.1187 23.9519 16.2862 24.0355 16.4579 23.9742L22.026 21.9836C22.0346 21.9751 22.042 21.9658 22.0499 21.9568C22.3804 20.6586 20.0714 18.0273 18.986 18.8951Z" fill="url(#paint17_linear_3491_48868)"/>
<path d="M35.7365 8.27359L22.0266 21.9835C21.9734 21.8914 21.9071 21.8046 21.8284 21.7259C21.3377 21.2352 20.5419 21.2352 20.0512 21.7259C20.029 21.748 20.1146 21.6573 20.1146 21.6573C20.5409 21.1636 20.5197 20.4173 20.0508 19.9484C19.5819 19.4794 18.8356 19.4583 18.3419 19.8846C18.3419 19.8846 18.2511 19.9701 18.2732 19.948C18.764 19.4573 18.764 18.6615 18.2732 18.1707C18.1946 18.0921 18.1078 18.0258 18.0156 17.9726L31.7257 4.2627L35.7365 8.27359Z" fill="url(#paint18_linear_3491_48868)"/>
<path d="M34.6178 7.15425L20.1149 21.6571C20.5413 21.1634 20.5201 20.4171 20.0512 19.9482C19.5823 19.4792 18.836 19.4581 18.3423 19.8844L32.8451 5.38159L34.6178 7.15425Z" fill="url(#paint19_linear_3491_48868)"/>
<path d="M18.273 19.9483C18.2509 19.9704 18.3417 19.8849 18.3417 19.8849C18.8353 19.4586 19.5816 19.4797 20.0506 19.9487C20.5195 20.4176 20.5406 21.1639 20.1143 21.6576C20.1143 21.6576 20.0288 21.7484 20.0509 21.7262C20.5417 21.2355 21.3375 21.2355 21.8282 21.7262C21.9068 21.8049 21.9731 21.8917 22.0264 21.9838L35.7362 8.27382L32.2024 4.73999L18.4865 18.4559C18.7481 18.9331 18.6771 19.5441 18.273 19.9483Z" fill="url(#paint20_linear_3491_48868)"/>
<path d="M17.1498 22.85C16.939 22.6393 16.7035 22.4703 16.4544 22.3418L16.0258 23.5407C15.9295 23.8101 16.1897 24.0703 16.4591 23.974L17.658 23.5454C17.5296 23.2962 17.3605 23.0607 17.1498 22.85Z" fill="url(#paint21_linear_3491_48868)"/>
<path d="M31.0928 4.89314L31.1022 12.9109L35.1097 8.90337L31.0962 4.88977L31.0928 4.89314Z" fill="url(#paint22_linear_3491_48868)"/>
<path d="M34.9801 8.81376L31.1855 5.01925C30.9954 4.82915 30.9954 4.52104 31.1855 4.33093C31.3757 4.14083 31.6838 4.14083 31.8739 4.33093L35.6684 8.12544C35.8585 8.31547 35.8585 8.62365 35.6684 8.81376C35.4783 9.00379 35.1701 9.00379 34.9801 8.81376Z" fill="url(#paint23_linear_3491_48868)"/>
<path d="M3.60188 17.6708H2.06947C1.66298 17.6708 1.3335 17.3413 1.3335 16.9348C1.3335 16.5283 1.66298 16.1989 2.06947 16.1989H3.60188C4.00838 16.1989 4.33786 16.5284 4.33786 16.9348C4.33793 17.3413 4.00838 17.6708 3.60188 17.6708Z" fill="url(#paint24_linear_3491_48868)"/>
<path d="M17.5066 3.76668V2.23427C17.5066 1.82777 17.1771 1.49829 16.7706 1.49829C16.3642 1.49829 16.0347 1.82785 16.0347 2.23427V3.76668C16.0347 4.17317 16.3642 4.50265 16.7706 4.50265C17.1771 4.50273 17.5066 4.17317 17.5066 3.76668Z" fill="url(#paint25_linear_3491_48868)"/>
<path d="M6.93824 8.14353L5.8547 7.05999C5.56731 6.7726 5.56731 6.3066 5.8547 6.01913C6.1421 5.73174 6.6081 5.73174 6.89556 6.01913L7.97918 7.10274C8.26657 7.39013 8.26657 7.85614 7.97918 8.1436C7.69171 8.43099 7.22571 8.43099 6.93824 8.14353Z" fill="url(#paint26_linear_3491_48868)"/>
<path d="M26.6026 8.14385L27.6862 7.06024C27.9736 6.77285 27.9736 6.30684 27.6862 6.01938C27.3988 5.73199 26.9327 5.73199 26.6453 6.01938L25.5617 7.10299C25.2743 7.39038 25.2743 7.85638 25.5617 8.14385C25.8491 8.43131 26.3151 8.43131 26.6026 8.14385Z" fill="url(#paint27_linear_3491_48868)"/>
<defs>
<linearGradient id="paint0_linear_3491_48868" x1="12.4304" y1="23.6333" x2="36.1645" y2="47.9812" gradientUnits="userSpaceOnUse">
<stop stop-color="#FF7044"/>
<stop offset="1" stop-color="#F92814"/>
</linearGradient>
<linearGradient id="paint1_linear_3491_48868" x1="19.2507" y1="31.0186" x2="20.8491" y2="43.0062" gradientUnits="userSpaceOnUse">
<stop stop-color="#F92814" stop-opacity="0"/>
<stop offset="1" stop-color="#C1272D"/>
</linearGradient>
<linearGradient id="paint2_linear_3491_48868" x1="18.8365" y1="23.5359" x2="20.4836" y2="32.6468" gradientUnits="userSpaceOnUse">
<stop stop-color="#F9F7FC"/>
<stop offset="1" stop-color="#F0DDFC"/>
</linearGradient>
<linearGradient id="paint3_linear_3491_48868" x1="18.8365" y1="23.5359" x2="20.4836" y2="32.6468" gradientUnits="userSpaceOnUse">
<stop stop-color="#F9F7FC"/>
<stop offset="1" stop-color="#F0DDFC"/>
</linearGradient>
<linearGradient id="paint4_linear_3491_48868" x1="20.7204" y1="33.4903" x2="21.983" y2="40.8269" gradientUnits="userSpaceOnUse">
<stop stop-color="#F0DDFC" stop-opacity="0"/>
<stop offset="0.2889" stop-color="#C8B7E0" stop-opacity="0.289"/>
<stop offset="0.5915" stop-color="#A595C8" stop-opacity="0.592"/>
<stop offset="0.8395" stop-color="#8F81B8" stop-opacity="0.84"/>
<stop offset="1" stop-color="#8779B3"/>
</linearGradient>
<linearGradient id="paint5_linear_3491_48868" x1="19.5651" y1="33.5575" x2="19.1137" y2="38.4914" gradientUnits="userSpaceOnUse">
<stop stop-color="#F0DDFC" stop-opacity="0"/>
<stop offset="0.2889" stop-color="#C8B7E0" stop-opacity="0.289"/>
<stop offset="0.5915" stop-color="#A595C8" stop-opacity="0.592"/>
<stop offset="0.8395" stop-color="#8F81B8" stop-opacity="0.84"/>
<stop offset="1" stop-color="#8779B3"/>
</linearGradient>
<linearGradient id="paint6_linear_3491_48868" x1="9.44146" y1="26.0312" x2="15.7862" y2="32.3759" gradientUnits="userSpaceOnUse">
<stop stop-color="#F9F7FC"/>
<stop offset="1" stop-color="#F0DDFC"/>
</linearGradient>
<linearGradient id="paint7_linear_3491_48868" x1="25.6071" y1="24.2875" x2="31.6293" y2="32.0304" gradientUnits="userSpaceOnUse">
<stop stop-color="#F9F7FC"/>
<stop offset="1" stop-color="#F0DDFC"/>
</linearGradient>
<linearGradient id="paint8_linear_3491_48868" x1="11.2792" y1="28.1521" x2="5.44342" y2="22.753" gradientUnits="userSpaceOnUse">
<stop stop-color="#E9EDF5" stop-opacity="0"/>
<stop offset="1" stop-color="white"/>
</linearGradient>
<linearGradient id="paint9_linear_3491_48868" x1="30.6974" y1="27.1963" x2="20.498" y2="16.704" gradientUnits="userSpaceOnUse">
<stop stop-color="#F0DDFC" stop-opacity="0"/>
<stop offset="0.1613" stop-color="#E8D5F6" stop-opacity="0.161"/>
<stop offset="0.4171" stop-color="#D1BFE6" stop-opacity="0.417"/>
<stop offset="0.7332" stop-color="#AC9CCD" stop-opacity="0.733"/>
<stop offset="1" stop-color="#8779B3"/>
</linearGradient>
<linearGradient id="paint10_linear_3491_48868" x1="35.1373" y1="2.46864" x2="37.819" y2="5.15032" gradientUnits="userSpaceOnUse">
<stop stop-color="#FF7044"/>
<stop offset="1" stop-color="#F92814"/>
</linearGradient>
<linearGradient id="paint11_linear_3491_48868" x1="36.1526" y1="4.43462" x2="36.4993" y2="0.521973" gradientUnits="userSpaceOnUse">
<stop stop-color="#FF7044" stop-opacity="0"/>
<stop offset="1" stop-color="#FFA425"/>
</linearGradient>
<linearGradient id="paint12_linear_3491_48868" x1="38.7198" y1="3.19654" x2="37.234" y2="5.838" gradientUnits="userSpaceOnUse">
<stop stop-color="#F92814" stop-opacity="0"/>
<stop offset="1" stop-color="#C1272D"/>
</linearGradient>
<linearGradient id="paint13_linear_3491_48868" x1="33.2222" y1="4.13426" x2="36.1832" y2="7.09531" gradientUnits="userSpaceOnUse">
<stop stop-color="#F9F7FC"/>
<stop offset="1" stop-color="#F0DDFC"/>
</linearGradient>
<linearGradient id="paint14_linear_3491_48868" x1="33.6455" y1="6.77496" x2="35.5936" y2="3.83632" gradientUnits="userSpaceOnUse">
<stop stop-color="#F0DDFC" stop-opacity="0"/>
<stop offset="0.2889" stop-color="#C8B7E0" stop-opacity="0.289"/>
<stop offset="0.5915" stop-color="#A595C8" stop-opacity="0.592"/>
<stop offset="0.8395" stop-color="#8F81B8" stop-opacity="0.84"/>
<stop offset="1" stop-color="#8779B3"/>
</linearGradient>
<linearGradient id="paint15_linear_3491_48868" x1="35.0393" y1="4.93809" x2="34.4631" y2="5.5654" gradientUnits="userSpaceOnUse">
<stop stop-color="#F9F7FC"/>
<stop offset="1" stop-color="#F0DDFC"/>
</linearGradient>
<linearGradient id="paint16_linear_3491_48868" x1="16.4831" y1="19.5046" x2="20.4935" y2="23.515" gradientUnits="userSpaceOnUse">
<stop stop-color="#FFDAAA"/>
<stop offset="0.4213" stop-color="#FFD8A8"/>
<stop offset="0.6519" stop-color="#FED1A0"/>
<stop offset="0.8359" stop-color="#FDC592"/>
<stop offset="0.9951" stop-color="#FCB47F"/>
<stop offset="1" stop-color="#FCB37E"/>
</linearGradient>
<linearGradient id="paint17_linear_3491_48868" x1="19.1078" y1="22.4344" x2="16.4664" y2="18.8025" gradientUnits="userSpaceOnUse">
<stop stop-color="#FFDAAA" stop-opacity="0"/>
<stop offset="0.2507" stop-color="#FFE7C8" stop-opacity="0.251"/>
<stop offset="0.5543" stop-color="#FFF4E6" stop-opacity="0.554"/>
<stop offset="0.8148" stop-color="#FFFCF8" stop-opacity="0.815"/>
<stop offset="1" stop-color="white"/>
</linearGradient>
<linearGradient id="paint18_linear_3491_48868" x1="24.4467" y1="11.5404" x2="28.457" y2="15.5508" gradientUnits="userSpaceOnUse">
<stop stop-color="#FFDA45"/>
<stop offset="1" stop-color="#FFA425"/>
</linearGradient>
<linearGradient id="paint19_linear_3491_48868" x1="25.4907" y1="12.5144" x2="28.6773" y2="15.7009" gradientUnits="userSpaceOnUse">
<stop stop-color="#FFDA45"/>
<stop offset="1" stop-color="#FFA425"/>
</linearGradient>
<linearGradient id="paint20_linear_3491_48868" x1="27.3919" y1="14.77" x2="24.1038" y2="9.21579" gradientUnits="userSpaceOnUse">
<stop stop-color="#FFDA45" stop-opacity="0"/>
<stop offset="1" stop-color="#FCEE21"/>
</linearGradient>
<linearGradient id="paint21_linear_3491_48868" x1="16.5148" y1="23.241" x2="17.5381" y2="24.2643" gradientUnits="userSpaceOnUse">
<stop stop-color="#7E8595"/>
<stop offset="1" stop-color="#555A66"/>
</linearGradient>
<linearGradient id="paint22_linear_3491_48868" x1="31.6325" y1="10.9524" x2="34.5876" y2="2.81354" gradientUnits="userSpaceOnUse">
<stop stop-color="#FFDA45" stop-opacity="0"/>
<stop offset="1" stop-color="#B53759"/>
</linearGradient>
<linearGradient id="paint23_linear_3491_48868" x1="33.667" y1="6.30975" x2="33.0908" y2="6.93706" gradientUnits="userSpaceOnUse">
<stop stop-color="#F9F7FC"/>
<stop offset="1" stop-color="#F0DDFC"/>
</linearGradient>
<linearGradient id="paint24_linear_3491_48868" x1="2.83568" y1="16.7634" x2="2.83568" y2="18.2779" gradientUnits="userSpaceOnUse">
<stop stop-color="#92F37F"/>
<stop offset="1" stop-color="#4AB272"/>
</linearGradient>
<linearGradient id="paint25_linear_3491_48868" x1="16.5993" y1="3.00047" x2="18.1137" y2="3.00047" gradientUnits="userSpaceOnUse">
<stop stop-color="#92F37F"/>
<stop offset="1" stop-color="#4AB272"/>
</linearGradient>
<linearGradient id="paint26_linear_3491_48868" x1="7.03546" y1="6.95638" x2="5.96472" y2="8.02712" gradientUnits="userSpaceOnUse">
<stop stop-color="#92F37F"/>
<stop offset="1" stop-color="#4AB272"/>
</linearGradient>
<linearGradient id="paint27_linear_3491_48868" x1="26.5063" y1="6.95675" x2="27.577" y2="8.02744" gradientUnits="userSpaceOnUse">
<stop stop-color="#92F37F"/>
<stop offset="1" stop-color="#4AB272"/>
</linearGradient>
</defs>
</svg>
