<svg width="40" height="40" viewBox="0 0 40 40" fill="none" xmlns="http://www.w3.org/2000/svg">
<path d="M35.1818 36.8587H4.81859C2.89381 36.8587 1.3335 35.2984 1.3335 33.3737V15.7625C1.3335 13.8378 2.89381 12.2775 4.81859 12.2775H35.1818C37.1065 12.2775 38.6668 13.8378 38.6668 15.7625V33.3736C38.6668 35.2984 37.1065 36.8587 35.1818 36.8587Z" fill="url(#paint0_linear_3491_48720)"/>
<path d="M35.1782 12.2775H24.6084V36.8587H35.1782C37.103 36.8587 38.6633 35.2984 38.6633 33.3737V15.7625C38.6633 13.8378 37.103 12.2775 35.1782 12.2775Z" fill="url(#paint1_linear_3491_48720)"/>
<path d="M38.6633 24.6337H24.6084V36.8585H35.1783C37.103 36.8585 38.6633 35.2982 38.6633 33.3735V24.6337Z" fill="url(#paint2_linear_3491_48720)"/>
<path d="M1.3335 26.1055V33.3738C1.3335 35.2985 2.89381 36.8589 4.81859 36.8589H35.1818C37.1065 36.8589 38.6668 35.2985 38.6668 33.3738V26.1055H1.3335Z" fill="url(#paint3_linear_3491_48720)"/>
<path d="M36.1885 17.7434V31.3927C36.1885 33.0208 34.8687 34.3406 33.2407 34.3406H6.76037C5.13227 34.3406 3.8125 33.0208 3.8125 31.3927V29.0386C3.8125 28.5506 4.20809 28.155 4.69605 28.155C5.18402 28.155 5.57961 27.7594 5.57961 27.2714V21.8647C5.57961 21.3767 5.18402 20.9811 4.69605 20.9811C4.20809 20.9811 3.8125 20.5856 3.8125 20.0976V17.7434C3.8125 16.1153 5.13234 14.7955 6.76037 14.7955H33.2407C34.8687 14.7955 36.1885 16.1153 36.1885 17.7434Z" fill="url(#paint4_linear_3491_48720)"/>
<path d="M33.2368 14.7954H24.6084V34.3405H33.2368C34.8649 34.3405 36.1847 33.0206 36.1847 31.3926V17.7433C36.1847 16.1152 34.8649 14.7954 33.2368 14.7954Z" fill="url(#paint5_linear_3491_48720)"/>
<path d="M3.26611 26.2928C3.26611 26.596 3.51193 26.8418 3.81513 26.8418C4.11834 26.8418 4.36415 26.596 4.36415 26.2928V22.8438C4.36415 22.5406 4.11834 22.2948 3.81513 22.2948C3.51193 22.2948 3.26611 22.5406 3.26611 22.8438V26.2928Z" fill="url(#paint6_linear_3491_48720)"/>
<path d="M33.0495 34.3405H7.11736C6.50027 34.3405 6 33.8402 6 33.2231C6 27.2618 10.8326 22.4292 16.7939 22.4292H23.3729C29.3342 22.4292 34.1668 27.2618 34.1668 33.2231C34.1669 33.8402 33.6666 34.3405 33.0495 34.3405Z" fill="url(#paint7_linear_3491_48720)"/>
<path d="M23.3731 22.4292H16.7942C16.6395 22.4292 16.4857 22.4332 16.3325 22.4397V28.6177L21.9442 34.2294L30.1268 34.3405H33.0497C33.6668 34.3405 34.1671 33.8402 34.1671 33.2231C34.1671 27.2618 29.3345 22.4292 23.3731 22.4292Z" fill="url(#paint8_linear_3491_48720)"/>
<path d="M23.3772 22.4291H20.0879V34.2041L30.1309 34.3404H33.0538C33.6709 34.3404 34.1712 33.8402 34.1712 33.2231C34.1712 27.2617 29.3386 22.4291 23.3772 22.4291Z" fill="url(#paint9_linear_3491_48720)"/>
<path d="M6 33.2234C6 33.8405 6.50027 34.3407 7.11736 34.3407H33.0494C33.6665 34.3407 34.1668 33.8405 34.1668 33.2234C34.1668 32.3676 34.0667 31.5352 33.8785 30.7368H6.28835C6.10007 31.5351 6 32.3675 6 33.2234Z" fill="url(#paint10_linear_3491_48720)"/>
<path d="M20.0859 26.6364C21.8368 26.6364 23.2562 25.217 23.2562 23.4661C23.2562 21.7152 21.8368 20.2958 20.0859 20.2958C18.3349 20.2958 16.9155 21.7152 16.9155 23.4661C16.9155 25.217 18.3349 26.6364 20.0859 26.6364Z" fill="url(#paint11_linear_3491_48720)"/>
<path d="M20.0859 26.6364C21.8368 26.6364 23.2562 25.217 23.2562 23.4661C23.2562 21.7152 21.8368 20.2958 20.0859 20.2958C18.3349 20.2958 16.9155 21.7152 16.9155 23.4661C16.9155 25.217 18.3349 26.6364 20.0859 26.6364Z" fill="url(#paint12_linear_3491_48720)"/>
<path d="M20.3793 26.6362L15.6153 20.9082L15.3276 21.0115C14.5809 21.2796 14.2035 22.1526 14.5028 22.9192L16.6344 28.3794C16.771 28.7295 17.1783 28.861 17.4787 28.6522L20.3793 26.6362Z" fill="url(#paint13_linear_3491_48720)"/>
<path d="M20.3789 26.6362L25.1429 20.9082L25.4306 21.0115C26.1772 21.2796 26.5547 22.1526 26.2554 22.9192L24.1238 28.3794C23.9872 28.7295 23.5799 28.861 23.2795 28.6522L20.3789 26.6362Z" fill="url(#paint14_linear_3491_48720)"/>
<path d="M14.2316 14.1672C14.2316 14.1672 13.4007 12.8138 12.9415 13.8018C12.7426 14.3021 12.6455 14.8384 12.656 15.3781C12.6665 15.9178 12.7844 16.4497 13.0025 16.9416C13.3768 17.6454 14.144 18.7741 14.4094 18.812C14.5544 18.8214 14.6995 18.7978 14.8345 18.743C14.9694 18.6883 15.0908 18.6037 15.1898 18.4953L14.2316 14.1672Z" fill="url(#paint15_linear_3491_48720)"/>
<path d="M26.5701 14.2048C26.5701 14.2048 27.401 12.8514 27.8602 13.8393C28.0591 14.3401 28.1562 14.8769 28.1457 15.417C28.1352 15.9572 28.0173 16.4896 27.7991 16.9819C27.4249 17.683 26.6577 18.8144 26.3922 18.8496C26.2475 18.8587 26.1027 18.8353 25.9678 18.7811C25.833 18.7268 25.7114 18.643 25.6118 18.5356L26.5701 14.2048Z" fill="url(#paint16_linear_3491_48720)"/>
<path d="M27.1058 10.4749C27.1058 6.4878 24.1646 4.30884 20.512 4.30884H20.4058C16.7532 4.30884 13.812 6.4878 13.812 10.4749C13.812 14.3754 16.8621 21.773 20.4138 22.0924H20.5041C24.0691 21.773 27.1058 14.3754 27.1058 10.4749Z" fill="#231F20"/>
<path d="M26.3019 7.52422C25.3861 5.81082 21.7547 7.60543 20.3823 7.60813C19.0099 7.61084 15.9307 5.37774 15.0149 7.09114C14.322 8.40122 14.6034 12.7321 14.6034 15.0518C14.6034 16.6759 15.0016 19.5315 15.2776 20.0161C16.3607 21.9108 18.5135 23.7758 20.3823 23.8056C22.2404 23.7839 24.4065 21.9108 25.4869 20.0161C25.7524 19.5315 26.1612 16.6732 26.1612 15.0518C26.1612 12.7321 26.9894 8.82348 26.3019 7.52422Z" fill="url(#paint17_linear_3491_48720)"/>
<path d="M25.4497 7.98207C26.4079 9.01065 26.0814 11.7959 26.1451 13.7205C26.1903 15.0955 26.1053 16.3054 26.1053 16.3054C26.1053 16.3054 28.643 8.20944 27.1963 7.438C27.1963 7.438 27.1792 6.10192 26.1345 5.99799C26.1345 5.99799 24.425 3.46714 23.5092 3.59978C23.0438 4.29269 19.7344 2.36577 18.133 4.03417C18.133 4.03417 16.5544 4.09317 15.1899 5.76055L15.7819 4.50114C15.7819 4.50114 14.6962 5.42415 14.5475 6.59078C14.5475 6.59078 13.653 7.04281 13.5282 8.48553C13.4141 9.80373 14.2476 14.6272 14.6405 16.0212C14.6405 16.0212 14.7997 12.4564 14.7732 11.8988C14.6935 10.226 15.4023 7.83861 15.1899 7.11589C15.1899 7.11589 18.6859 7.91169 20.7644 7.91169C22.8429 7.91169 24.4914 6.95349 25.4497 7.98207Z" fill="url(#paint18_linear_3491_48720)"/>
<path d="M19.3104 20.5822C19.5877 20.6433 19.8708 20.6723 20.1545 20.6688C20.3434 20.6186 20.5417 20.6186 20.7305 20.6688C20.9486 20.6479 21.165 20.6117 21.3782 20.5605C21.3782 21.1019 20.4651 21.2291 20.3377 21.2264C20.0882 21.221 19.2918 20.9341 19.3104 20.5822Z" fill="#2F2E2A"/>
<path d="M22.5645 19.5534C22.525 19.5667 22.484 19.5748 22.4424 19.5777C22.3991 19.5801 22.3557 19.5801 22.3123 19.5777C22.1345 19.5777 21.954 19.5777 21.7814 19.5777C21.6089 19.5777 21.4178 19.5777 21.2293 19.594C21.1364 19.594 21.0435 19.6129 20.9453 19.6318C20.8975 19.6318 20.8497 19.6508 20.7993 19.667C20.7443 19.6823 20.6909 19.7031 20.64 19.7293H20.6241H20.6081L20.5736 19.7482L20.5073 19.7888C20.4824 19.8071 20.4557 19.8225 20.4276 19.8349C20.4099 19.8442 20.3912 19.8515 20.3719 19.8565H20.3374H20.3029C20.2836 19.8515 20.2649 19.8442 20.2471 19.8349C20.219 19.8225 20.1923 19.8071 20.1675 19.7888L20.0879 19.7699H20.048H20.0321H20.0162C19.9653 19.7437 19.9119 19.7229 19.8569 19.7076C19.8065 19.6914 19.7587 19.6833 19.7109 19.6724C19.6127 19.6535 19.5198 19.6454 19.4269 19.6346C19.2384 19.6346 19.0579 19.6183 18.8747 19.6183C18.6916 19.6183 18.5137 19.6183 18.3438 19.6183C18.3005 19.6209 18.2571 19.6209 18.2138 19.6183C18.1713 19.6157 18.1294 19.6075 18.089 19.594C18.0038 19.567 17.9233 19.5268 17.8501 19.4749C17.9044 19.5532 17.9729 19.6202 18.0518 19.6724C18.0925 19.7007 18.1362 19.7243 18.1819 19.7428C18.2262 19.7606 18.2714 19.776 18.3173 19.7888C18.5005 19.8403 18.681 19.87 18.8482 19.9025L19.3791 19.9864C19.464 20 19.549 20.0162 19.6446 20.0352C19.6817 20.0352 19.7242 20.0568 19.7587 20.0703C19.7932 20.0839 19.8224 20.0947 19.8516 20.1055L19.8781 20.1245L19.9127 20.1407C19.9374 20.1517 19.9632 20.1598 19.9896 20.1651C20.0438 20.1773 20.1 20.1773 20.1542 20.1651C20.276 20.1516 20.3988 20.1516 20.5205 20.1651C20.5748 20.1773 20.6309 20.1773 20.6851 20.1651C20.7116 20.1598 20.7374 20.1517 20.7621 20.1407L20.7993 20.1245L20.8232 20.1055C20.8524 20.1055 20.8789 20.0812 20.9161 20.0703C20.9532 20.0595 20.993 20.046 21.0302 20.0352C21.1125 20.0162 21.1974 20 21.2824 19.9864L21.8133 19.9025C21.9911 19.87 22.1717 19.8403 22.3442 19.7888C22.3901 19.776 22.4353 19.7606 22.4796 19.7428C22.5253 19.7243 22.5689 19.7007 22.6096 19.6724C22.6886 19.6202 22.7571 19.5532 22.8114 19.4749C22.7334 19.5134 22.6502 19.5399 22.5645 19.5534Z" fill="url(#paint19_linear_3491_48720)"/>
<path d="M18.6918 21.711C19.7485 22.0672 20.8896 22.0672 21.9462 21.711C22.2577 21.6219 22.5866 21.6172 22.9004 21.6974C23.2142 21.7776 23.502 21.94 23.7354 22.1685C22.6736 23.1998 21.7126 23.7276 20.5155 23.7925C19.3183 23.8575 18.1503 23.2674 17.1177 22.2632C17.1177 22.2632 17.8662 21.4431 18.6918 21.711Z" fill="url(#paint20_linear_3491_48720)"/>
<path d="M20.6025 18.3261H19.9645C19.4327 18.3261 19.0302 17.8654 19.1233 17.3635L20.1536 15.3921H20.4133L21.4437 17.3635C21.5368 17.8654 21.1342 18.3261 20.6025 18.3261Z" fill="url(#paint21_linear_3491_48720)"/>
<path d="M17.6528 14.2829C17.1644 14.2829 16.7686 13.887 16.7686 13.3986V12.9451C16.7686 12.4567 17.1645 12.0608 17.6528 12.0608C18.1412 12.0608 18.5371 12.4567 18.5371 12.9451V13.3986C18.5371 13.887 18.1412 14.2829 17.6528 14.2829Z" fill="url(#paint22_linear_3491_48720)"/>
<path d="M23.0474 14.2829C22.559 14.2829 22.1631 13.887 22.1631 13.3986V12.9451C22.1631 12.4567 22.559 12.0608 23.0474 12.0608C23.5358 12.0608 23.9317 12.4567 23.9317 12.9451V13.3986C23.9317 13.887 23.5358 14.2829 23.0474 14.2829Z" fill="url(#paint23_linear_3491_48720)"/>
<g clip-path="url(#clip0_3491_48720)">
<g clip-path="url(#clip1_3491_48720)">
<g clip-path="url(#clip2_3491_48720)">
<path fill-rule="evenodd" clip-rule="evenodd" d="M31.8321 29.1154C31.2677 29.1154 30.8086 29.5745 30.8086 30.1389C30.8086 30.7032 31.2677 31.1624 31.8321 31.1624C32.3965 31.1624 32.8556 30.7032 32.8556 30.1389C32.8556 29.5745 32.3965 29.1154 31.8321 29.1154Z" fill="#FF1A5E"/>
<path fill-rule="evenodd" clip-rule="evenodd" d="M31.8321 26.7271C29.9509 26.7271 28.4204 28.2575 28.4204 30.1387C28.4204 32.0199 29.9509 33.5504 31.8321 33.5504C33.7133 33.5504 35.2438 32.0199 35.2438 30.1387C35.2438 28.2575 33.7133 26.7271 31.8321 26.7271ZM31.8321 31.9908C30.8109 31.9908 29.98 31.16 29.98 30.1387C29.98 29.1175 30.8109 28.2867 31.8321 28.2867C32.8533 28.2867 33.6842 29.1175 33.6842 30.1387C33.6842 31.16 32.8533 31.9908 31.8321 31.9908Z" fill="#FF1A5E"/>
</g>
</g>
</g>
<defs>
<linearGradient id="paint0_linear_3491_48720" x1="18.9255" y1="23.4934" x2="33.4748" y2="38.0428" gradientUnits="userSpaceOnUse">
<stop stop-color="#5A5A5A"/>
<stop offset="1" stop-color="#444444"/>
</linearGradient>
<linearGradient id="paint1_linear_3491_48720" x1="32.3731" y1="26.3063" x2="23.1496" y2="17.2292" gradientUnits="userSpaceOnUse">
<stop stop-color="#433F43" stop-opacity="0"/>
<stop offset="1" stop-color="#1A1A1A"/>
</linearGradient>
<linearGradient id="paint2_linear_3491_48720" x1="31.6358" y1="30.252" x2="31.6358" y2="27.7445" gradientUnits="userSpaceOnUse">
<stop stop-color="#433F43" stop-opacity="0"/>
<stop offset="1" stop-color="#1A1A1A"/>
</linearGradient>
<linearGradient id="paint3_linear_3491_48720" x1="20.0001" y1="31.2296" x2="20.0001" y2="37.2349" gradientUnits="userSpaceOnUse">
<stop stop-color="#433F43" stop-opacity="0"/>
<stop offset="1" stop-color="#1A1A1A"/>
</linearGradient>
<linearGradient id="paint4_linear_3491_48720" x1="12.6977" y1="17.2652" x2="30.0222" y2="34.5898" gradientUnits="userSpaceOnUse">
<stop stop-color="#8AC9FE"/>
<stop offset="1" stop-color="#0593FC"/>
</linearGradient>
<linearGradient id="paint5_linear_3491_48720" x1="33.9783" y1="24.5679" x2="26.5084" y2="24.5679" gradientUnits="userSpaceOnUse">
<stop stop-color="#2740B0" stop-opacity="0"/>
<stop offset="0.9786" stop-color="#192A7E" stop-opacity="0.979"/>
<stop offset="1" stop-color="#192A7D"/>
</linearGradient>
<linearGradient id="paint6_linear_3491_48720" x1="5.40165" y1="24.5683" x2="3.07893" y2="24.5683" gradientUnits="userSpaceOnUse">
<stop stop-color="#433F43" stop-opacity="0"/>
<stop offset="1" stop-color="#1A1A1A"/>
</linearGradient>
<linearGradient id="paint7_linear_3491_48720" x1="16.6646" y1="25.1497" x2="21.028" y2="34.0129" gradientUnits="userSpaceOnUse">
<stop stop-color="#E6EEFF"/>
<stop offset="1" stop-color="#BAC8FA"/>
</linearGradient>
<linearGradient id="paint8_linear_3491_48720" x1="24.96" y1="29.1439" x2="22.267" y2="22.6328" gradientUnits="userSpaceOnUse">
<stop stop-color="#A7B7F1" stop-opacity="0"/>
<stop offset="1" stop-color="#A7B7F1"/>
</linearGradient>
<linearGradient id="paint9_linear_3491_48720" x1="27.9064" y1="31.8248" x2="20.4068" y2="25.5978" gradientUnits="userSpaceOnUse">
<stop stop-color="#A7B7F1" stop-opacity="0"/>
<stop offset="1" stop-color="#A7B7F1"/>
</linearGradient>
<linearGradient id="paint10_linear_3491_48720" x1="20.0834" y1="31.7045" x2="20.0834" y2="35.5704" gradientUnits="userSpaceOnUse">
<stop stop-color="#A7B7F1" stop-opacity="0"/>
<stop offset="1" stop-color="#A7B7F1"/>
</linearGradient>
<linearGradient id="paint11_linear_3491_48720" x1="20.0859" y1="21.6344" x2="20.0859" y2="26.1783" gradientUnits="userSpaceOnUse">
<stop stop-color="#FFDFCF"/>
<stop offset="1" stop-color="#FFA78F"/>
</linearGradient>
<linearGradient id="paint12_linear_3491_48720" x1="20.0859" y1="25.8865" x2="20.0859" y2="23.6273" gradientUnits="userSpaceOnUse">
<stop stop-color="#F89580" stop-opacity="0"/>
<stop offset="0.9972" stop-color="#C5715A"/>
</linearGradient>
<linearGradient id="paint13_linear_3491_48720" x1="16.6214" y1="24.8501" x2="13.1768" y2="27.6161" gradientUnits="userSpaceOnUse">
<stop stop-color="#E6EEFF"/>
<stop offset="1" stop-color="#BAC8FA"/>
</linearGradient>
<linearGradient id="paint14_linear_3491_48720" x1="23.3894" y1="24.2107" x2="25.7855" y2="26.3257" gradientUnits="userSpaceOnUse">
<stop stop-color="#E6EEFF"/>
<stop offset="1" stop-color="#BAC8FA"/>
</linearGradient>
<linearGradient id="paint15_linear_3491_48720" x1="11.4132" y1="12.5634" x2="18.3917" y2="23.4188" gradientUnits="userSpaceOnUse">
<stop stop-color="#E8B09D"/>
<stop offset="1" stop-color="#DA9A85"/>
</linearGradient>
<linearGradient id="paint16_linear_3491_48720" x1="24.3912" y1="13.2343" x2="27.9121" y2="18.5156" gradientUnits="userSpaceOnUse">
<stop stop-color="#F7C7B7"/>
<stop offset="1" stop-color="#CF8973"/>
</linearGradient>
<linearGradient id="paint17_linear_3491_48720" x1="15.0026" y1="11.7084" x2="26.7388" y2="11.7084" gradientUnits="userSpaceOnUse">
<stop stop-color="#EDAF94"/>
<stop offset="1" stop-color="#DB8D77"/>
</linearGradient>
<linearGradient id="paint18_linear_3491_48720" x1="18.2292" y1="4.72515" x2="26.738" y2="8.83281" gradientUnits="userSpaceOnUse">
<stop stop-color="#58574E"/>
<stop offset="1"/>
</linearGradient>
<linearGradient id="paint19_linear_3491_48720" x1="20.3307" y1="19.4749" x2="20.3307" y2="20.1742" gradientUnits="userSpaceOnUse">
<stop stop-color="#EFA48C"/>
<stop offset="1" stop-color="#D17E67"/>
</linearGradient>
<linearGradient id="paint20_linear_3491_48720" x1="17.9363" y1="22.6234" x2="24.3912" y2="22.6234" gradientUnits="userSpaceOnUse">
<stop stop-color="#58574E"/>
<stop offset="1" stop-color="#010101"/>
</linearGradient>
<linearGradient id="paint21_linear_3491_48720" x1="20.2835" y1="15.9998" x2="20.2835" y2="18.7966" gradientUnits="userSpaceOnUse">
<stop stop-color="#E4816D" stop-opacity="0"/>
<stop offset="0.9972" stop-color="#BE6B54"/>
</linearGradient>
<linearGradient id="paint22_linear_3491_48720" x1="16.7686" y1="13.1719" x2="18.5371" y2="13.1719" gradientUnits="userSpaceOnUse">
<stop/>
<stop offset="1" stop-color="#444444"/>
</linearGradient>
<linearGradient id="paint23_linear_3491_48720" x1="22.1631" y1="13.1719" x2="23.9317" y2="13.1719" gradientUnits="userSpaceOnUse">
<stop stop-color="#050505"/>
<stop offset="1" stop-color="#444444"/>
</linearGradient>
<clipPath id="clip0_3491_48720">
<rect width="6.82338" height="6.82338" fill="white" transform="translate(28.4204 26.7271)"/>
</clipPath>
<clipPath id="clip1_3491_48720">
<rect width="6.82338" height="6.82338" fill="white" transform="translate(28.4204 26.7271)"/>
</clipPath>
<clipPath id="clip2_3491_48720">
<rect width="6.82338" height="6.82338" fill="white" transform="translate(28.4204 26.7271)"/>
</clipPath>
</defs>
</svg>
