<svg width="40" height="40" viewBox="0 0 40 40" fill="none" xmlns="http://www.w3.org/2000/svg">
<path d="M33.3753 35.8023H11.7365C10.8703 35.8023 10.168 35.1 10.168 34.2337V2.90195C10.168 2.03568 10.8703 1.33337 11.7365 1.33337H33.3753C34.2416 1.33337 34.9439 2.03568 34.9439 2.90195V34.2337C34.9438 35.1 34.2416 35.8023 33.3753 35.8023Z" fill="url(#paint0_linear_3491_48944)"/>
<path d="M31.9423 4.79822V26.6265C31.9423 29.9636 30.833 33.186 28.8198 35.8023H33.3734C34.2397 35.8023 34.942 35.1 34.942 34.2337V7.79798L31.9423 4.79822Z" fill="url(#paint1_linear_3491_48944)"/>
<path d="M28.5408 37.2663H6.90208C6.0358 37.2663 5.3335 36.564 5.3335 35.6977V4.36594C5.3335 3.49967 6.0358 2.79736 6.90208 2.79736H28.5408C29.4071 2.79736 30.1094 3.49967 30.1094 4.36594V35.6977C30.1093 36.564 29.4071 37.2663 28.5408 37.2663Z" fill="url(#paint2_linear_3491_48944)"/>
<path d="M26.1015 38.6666H9.01958C8.17577 38.6666 7.4917 37.9825 7.4917 37.1387V5.72551C7.4917 4.88171 8.1757 4.19763 9.01958 4.19763H30.7397C31.5835 4.19763 32.2676 4.88171 32.2676 5.72551V32.5005C32.2675 35.906 29.5069 38.6666 26.1015 38.6666Z" fill="url(#paint3_linear_3491_48944)"/>
<path d="M20.9043 8.28188C20.8998 8.27668 20.8959 8.27119 20.8913 8.266C19.795 6.99623 17.8296 6.38784 15.4992 6.59772C15.1971 6.62487 14.9744 6.8917 15.0015 7.19366C15.0241 7.4443 15.6672 8.08211 15.8866 8.12281C15.8897 8.13987 15.8938 8.73486 15.8985 8.75126L14.5991 8.81714C13.7125 8.97064 12.8864 9.27385 12.2257 9.69337C11.1985 10.3456 10.5926 11.2561 10.4737 12.3264C10.3645 13.3084 10.6729 14.2501 11.3417 14.9779L31.6215 35.2425C32.0324 34.4164 32.2647 33.4858 32.2647 32.5006V19.6402L20.9043 8.28188Z" fill="url(#paint4_linear_3491_48944)"/>
<path d="M7.4917 27.4697V37.1385C7.4917 37.9823 8.1757 38.6664 9.01958 38.6664H26.1015C29.5069 38.6664 32.2675 35.9058 32.2675 32.5003V27.4698H7.4917V27.4697Z" fill="url(#paint5_linear_3491_48944)"/>
<path d="M26.1001 38.6667V34.0285C26.1001 33.1847 26.7842 32.5006 27.628 32.5006H32.2662C32.2662 35.9061 29.5055 38.6667 26.1001 38.6667Z" fill="url(#paint6_linear_3491_48944)"/>
<path d="M16.2077 27.6082H22.4169C22.7201 27.6082 22.9659 27.854 22.9659 28.1572C22.9659 28.4604 22.7201 28.7062 22.4169 28.7062H16.2077C15.9045 28.7062 15.6587 28.4604 15.6587 28.1572C15.6587 27.854 15.9045 27.6082 16.2077 27.6082Z" fill="#7BACDF"/>
<path d="M16.2077 25.2169H20.477C20.7802 25.2169 21.026 25.4627 21.026 25.7659C21.026 26.0691 20.7802 26.315 20.477 26.315H16.2077C15.9045 26.315 15.6587 26.0691 15.6587 25.7659C15.6587 25.4627 15.9045 25.2169 16.2077 25.2169Z" fill="#7BACDF"/>
<path d="M29.051 28.7064H24.6223C24.3191 28.7064 24.0732 28.4606 24.0732 28.1574C24.0732 27.8542 24.3191 27.6084 24.6223 27.6084H29.051C29.3542 27.6084 29.6 27.8542 29.6 28.1574C29.6 28.4606 29.3542 28.7064 29.051 28.7064Z" fill="#7BACDF"/>
<path d="M27.1111 25.2168C27.4143 25.2168 27.6602 25.4626 27.6602 25.7658C27.6602 26.069 27.4143 26.3148 27.1111 26.3148H24.6223C24.3191 26.3148 24.0732 26.069 24.0732 25.7658C24.0732 25.4626 24.3191 25.2168 24.6223 25.2168H27.1111Z" fill="#7BACDF"/>
<path d="M22.0993 26.3148C21.7961 26.3148 21.5503 26.069 21.5503 25.7658C21.5503 25.4626 21.7961 25.2168 22.0993 25.2168H22.7215C23.0247 25.2168 23.2705 25.4626 23.2705 25.7658C23.2705 26.069 23.0247 26.3148 22.7215 26.3148H22.0993Z" fill="#7BACDF"/>
<path d="M29.0521 23.5822H22.843C22.5398 23.5822 22.2939 23.3364 22.2939 23.0331C22.2939 22.7299 22.5398 22.4841 22.843 22.4841H29.0521C29.3553 22.4841 29.6012 22.7299 29.6012 23.0331C29.6012 23.3364 29.3553 23.5822 29.0521 23.5822Z" fill="#7BACDF"/>
<path d="M27.1123 21.1911H22.843C22.5398 21.1911 22.2939 20.9452 22.2939 20.642C22.2939 20.3388 22.5398 20.093 22.843 20.093H27.1123C27.4155 20.093 27.6613 20.3388 27.6613 20.642C27.6613 20.9452 27.4155 21.1911 27.1123 21.1911Z" fill="#7BACDF"/>
<path d="M16.2077 22.484H20.6365C20.9397 22.484 21.1855 22.7298 21.1855 23.033C21.1855 23.3362 20.9397 23.582 20.6365 23.582H16.2077C15.9045 23.582 15.6587 23.3362 15.6587 23.033C15.6587 22.7298 15.9045 22.484 16.2077 22.484Z" fill="#7BACDF"/>
<path d="M16.2077 20.0928H18.6966C18.9998 20.0928 19.2456 20.3386 19.2456 20.6418C19.2456 20.945 18.9998 21.1908 18.6966 21.1908H16.2077C15.9045 21.1908 15.6587 20.945 15.6587 20.6418C15.6587 20.3385 15.9045 20.0928 16.2077 20.0928Z" fill="#7BACDF"/>
<path d="M20.5974 21.1911C20.2942 21.1911 20.0483 20.9452 20.0483 20.642C20.0483 20.3388 20.2942 20.093 20.5974 20.093H21.2196C21.5228 20.093 21.7686 20.3388 21.7686 20.642C21.7686 20.9452 21.5228 21.1911 21.2196 21.1911H20.5974Z" fill="#7BACDF"/>
<path d="M20.477 18.6043H16.2077C15.9045 18.6043 15.6587 18.3585 15.6587 18.0552C15.6587 17.752 15.9045 17.5062 16.2077 17.5062H20.477C20.7802 17.5062 21.026 17.752 21.026 18.0552C21.026 18.3585 20.7802 18.6043 20.477 18.6043Z" fill="#7BACDF"/>
<path d="M27.1111 18.6043H24.6223C24.3191 18.6043 24.0732 18.3585 24.0732 18.0552C24.0732 17.752 24.3191 17.5062 24.6223 17.5062H27.1111C27.4143 17.5062 27.6602 17.752 27.6602 18.0552C27.6602 18.3585 27.4143 18.6043 27.1111 18.6043Z" fill="#7BACDF"/>
<path d="M22.7215 18.6043H22.0993C21.7961 18.6043 21.5503 18.3585 21.5503 18.0552C21.5503 17.752 21.7961 17.5062 22.0993 17.5062H22.7215C23.0247 17.5062 23.2705 17.752 23.2705 18.0552C23.2705 18.3585 23.0247 18.6043 22.7215 18.6043Z" fill="#7BACDF"/>
<path d="M16.2077 30.3533H19.3367C19.6399 30.3533 19.8857 30.5991 19.8857 30.9023C19.8857 31.2055 19.6399 31.4513 19.3367 31.4513H16.2077C15.9045 31.4513 15.6587 31.2055 15.6587 30.9023C15.6587 30.5991 15.9045 30.3533 16.2077 30.3533Z" fill="#7BACDF"/>
<path d="M21.7204 30.3533H29.0585C29.3617 30.3533 29.6075 30.5991 29.6075 30.9023C29.6075 31.2055 29.3617 31.4513 29.0585 31.4513H21.7204C21.4172 31.4513 21.1714 31.2055 21.1714 30.9023C21.1714 30.5991 21.4172 30.3533 21.7204 30.3533Z" fill="#7BACDF"/>
<path d="M13.2384 21.6886H11.2748C10.6604 21.6886 10.1606 21.1888 10.1606 20.5745V18.6108C10.1606 17.9965 10.6605 17.4967 11.2748 17.4967H13.2384C13.8528 17.4967 14.3526 17.9965 14.3526 18.6108V20.5745C14.3526 21.1888 13.8528 21.6886 13.2384 21.6886ZM11.2748 18.5947C11.2659 18.5947 11.2587 18.6019 11.2587 18.6108V20.5744C11.2587 20.5834 11.2659 20.5905 11.2748 20.5905H13.2384C13.2474 20.5905 13.2545 20.5833 13.2545 20.5744V18.6108C13.2545 18.6018 13.2473 18.5947 13.2384 18.5947H11.2748Z" fill="#7BACDF"/>
<path d="M13.2384 26.5745H11.2748C10.6604 26.5745 10.1606 26.0747 10.1606 25.4604V23.4967C10.1606 22.8824 10.6605 22.3826 11.2748 22.3826H13.2384C13.8528 22.3826 14.3526 22.8824 14.3526 23.4967V25.4604C14.3526 26.0747 13.8528 26.5745 13.2384 26.5745ZM11.2748 23.4805C11.2659 23.4805 11.2587 23.4878 11.2587 23.4966V25.4603C11.2587 25.4692 11.2659 25.4764 11.2748 25.4764H13.2384C13.2474 25.4764 13.2545 25.4691 13.2545 25.4603V23.4966C13.2545 23.4877 13.2473 23.4805 13.2384 23.4805H11.2748Z" fill="#7BACDF"/>
<path d="M13.2384 31.4606H11.2748C10.6604 31.4606 10.1606 30.9608 10.1606 30.3465V28.3828C10.1606 27.7684 10.6605 27.2687 11.2748 27.2687H13.2384C13.8528 27.2687 14.3526 27.7685 14.3526 28.3828V30.3465C14.3526 30.9608 13.8528 31.4606 13.2384 31.4606ZM11.2748 28.3667C11.2659 28.3667 11.2587 28.374 11.2587 28.3828V30.3465C11.2587 30.3554 11.2659 30.3626 11.2748 30.3626H13.2384C13.2474 30.3626 13.2545 30.3553 13.2545 30.3465V28.3828C13.2545 28.3739 13.2473 28.3667 13.2384 28.3667H11.2748Z" fill="#7BACDF"/>
<path d="M14.5763 16.2011C13.2098 16.2012 12.0401 15.7439 11.269 14.9048C10.6 14.177 10.2918 13.2354 10.4009 12.2533C10.5199 11.183 11.1256 10.2725 12.153 9.62027C12.9681 9.10273 14.0348 8.76212 15.1564 8.66132C15.4582 8.63446 15.7253 8.85692 15.7524 9.15895C15.7795 9.46099 15.5567 9.72781 15.2548 9.75489C14.3042 9.84032 13.4117 10.1217 12.7415 10.5472C11.9946 11.0214 11.5743 11.6363 11.4923 12.3745C11.4188 13.0364 11.6266 13.6711 12.0775 14.1618C12.6613 14.797 13.5973 15.1309 14.711 15.1012C17.5766 15.0258 20.0551 12.9704 20.4873 11.173C20.6944 10.3114 20.5217 9.52899 19.9876 8.91058C19.1379 7.92659 17.4696 7.44367 15.5248 7.61826C15.2229 7.64586 14.956 7.42259 14.9289 7.12063C14.9017 6.81867 15.1245 6.55178 15.4265 6.52469C17.7569 6.31489 19.7223 6.92328 20.8186 8.19297C21.5825 9.07763 21.8439 10.2271 21.5548 11.4297C20.9528 13.9334 17.832 16.1174 14.7399 16.1989C14.6851 16.2004 14.6306 16.2011 14.5763 16.2011Z" fill="url(#paint7_linear_3491_48944)"/>
<path d="M11.4255 20.6706C11.2806 20.6706 11.1406 20.6134 11.0373 20.51L10.1101 19.5829C9.89561 19.3685 9.89561 19.0209 10.11 18.8065C10.3245 18.5921 10.6721 18.592 10.8864 18.8065L11.3785 19.2985C11.9329 18.6496 13.0396 17.5162 14.5873 16.7073C14.8561 16.5668 15.1878 16.6707 15.3282 16.9395C15.4686 17.2082 15.3647 17.5399 15.096 17.6803C13.1007 18.7232 11.8863 20.4211 11.8743 20.4382C11.7809 20.5704 11.6337 20.6549 11.4724 20.6687C11.4568 20.6698 11.4411 20.6706 11.4255 20.6706Z" fill="url(#paint8_linear_3491_48944)"/>
<path d="M12.9641 25.5752C12.8192 25.5752 12.6792 25.518 12.5759 25.4146L11.6487 24.4874C11.4342 24.273 11.4342 23.9254 11.6486 23.711C11.8631 23.4966 12.2107 23.4965 12.425 23.711L12.9171 24.2031C13.4715 23.5541 14.5782 22.4207 16.1259 21.6118C16.3947 21.4713 16.7263 21.5753 16.8667 21.844C17.0072 22.1127 16.9033 22.4445 16.6346 22.5849C14.6393 23.6278 13.4248 25.3256 13.4128 25.3427C13.3194 25.4749 13.1722 25.5594 13.011 25.5732C12.9954 25.5744 12.9797 25.5752 12.9641 25.5752Z" fill="url(#paint9_linear_3491_48944)"/>
<path d="M11.4617 30.8094C11.3167 30.8094 11.1768 30.7523 11.0735 30.6489L10.1462 29.7216C9.93174 29.5072 9.93174 29.1597 10.1461 28.9453C10.3606 28.7309 10.7083 28.7308 10.9225 28.9453L11.4147 29.4373C11.969 28.7884 13.0758 27.655 14.6234 26.846C14.8922 26.7056 15.2239 26.8095 15.3643 27.0782C15.5048 27.347 15.4008 27.6787 15.1321 27.8191C13.1368 28.862 11.9224 30.5599 11.9104 30.5769C11.817 30.7091 11.6698 30.7937 11.5085 30.8075C11.4929 30.8087 11.4773 30.8094 11.4617 30.8094Z" fill="url(#paint10_linear_3491_48944)"/>
<path d="M13.6313 14.2771C13.6313 14.2492 13.6406 14.2121 13.6499 14.1749L15.3774 8.50953C15.4796 8.18444 15.8975 8.02661 16.3247 8.02661C16.7519 8.02661 17.1699 8.18451 17.272 8.50953L19.0088 14.1749C19.0181 14.212 19.0273 14.2492 19.0273 14.2771C19.0273 14.6207 18.498 14.8715 18.0986 14.8715C17.8664 14.8715 17.6807 14.7972 17.6249 14.6022L17.3092 13.4412H15.3495L15.0337 14.6022C14.978 14.7972 14.7922 14.8715 14.56 14.8715C14.1607 14.8715 13.6313 14.6208 13.6313 14.2771ZM17.0027 12.3267L16.3247 9.83771L15.6467 12.3267H17.0027Z" fill="url(#paint11_linear_3491_48944)"/>
<defs>
<linearGradient id="paint0_linear_3491_48944" x1="6.75945" y1="2.77136" x2="17.168" y2="13.1799" gradientUnits="userSpaceOnUse">
<stop stop-color="#B4D2E2"/>
<stop offset="1" stop-color="#7BACDF"/>
</linearGradient>
<linearGradient id="paint1_linear_3491_48944" x1="37.3898" y1="20.3003" x2="31.5285" y2="20.3003" gradientUnits="userSpaceOnUse">
<stop stop-color="#7BACDF" stop-opacity="0"/>
<stop offset="1" stop-color="#017297"/>
</linearGradient>
<linearGradient id="paint2_linear_3491_48944" x1="6.38995" y1="8.70033" x2="31.1143" y2="33.4246" gradientUnits="userSpaceOnUse">
<stop stop-color="#B4D2E2"/>
<stop offset="1" stop-color="#7BACDF"/>
</linearGradient>
<linearGradient id="paint3_linear_3491_48944" x1="11.6081" y1="13.1605" x2="36.505" y2="38.0575" gradientUnits="userSpaceOnUse">
<stop stop-color="#E6EEFF"/>
<stop offset="1" stop-color="#BAC8FA"/>
</linearGradient>
<linearGradient id="paint4_linear_3491_48944" x1="25.9096" y1="21.8865" x2="11.2325" y2="5.52582" gradientUnits="userSpaceOnUse">
<stop stop-color="#A7B7F1" stop-opacity="0"/>
<stop offset="1" stop-color="#A7B7F1"/>
</linearGradient>
<linearGradient id="paint5_linear_3491_48944" x1="19.8797" y1="36.1775" x2="19.8797" y2="38.3083" gradientUnits="userSpaceOnUse">
<stop stop-color="#A7B7F1" stop-opacity="0"/>
<stop offset="1" stop-color="#A7B7F1"/>
</linearGradient>
<linearGradient id="paint6_linear_3491_48944" x1="26.1867" y1="32.5873" x2="30.0849" y2="36.4855" gradientUnits="userSpaceOnUse">
<stop stop-color="#E6EEFF"/>
<stop offset="1" stop-color="#BAC8FA"/>
</linearGradient>
<linearGradient id="paint7_linear_3491_48944" x1="13.679" y1="9.17886" x2="18.892" y2="14.3918" gradientUnits="userSpaceOnUse">
<stop stop-color="#FD4755"/>
<stop offset="1" stop-color="#A72B2B"/>
</linearGradient>
<linearGradient id="paint8_linear_3491_48944" x1="11.8526" y1="17.3767" x2="13.6595" y2="19.1835" gradientUnits="userSpaceOnUse">
<stop stop-color="#FD4755"/>
<stop offset="1" stop-color="#A72B2B"/>
</linearGradient>
<linearGradient id="paint9_linear_3491_48944" x1="13.3912" y1="22.2813" x2="15.198" y2="24.0881" gradientUnits="userSpaceOnUse">
<stop stop-color="#FD4755"/>
<stop offset="1" stop-color="#A72B2B"/>
</linearGradient>
<linearGradient id="paint10_linear_3491_48944" x1="11.8887" y1="27.5155" x2="13.6956" y2="29.3224" gradientUnits="userSpaceOnUse">
<stop stop-color="#FD4755"/>
<stop offset="1" stop-color="#A72B2B"/>
</linearGradient>
<linearGradient id="paint11_linear_3491_48944" x1="13.6313" y1="11.449" x2="19.0273" y2="11.449" gradientUnits="userSpaceOnUse">
<stop stop-color="#FD4755"/>
<stop offset="1" stop-color="#A72B2B"/>
</linearGradient>
</defs>
</svg>
