<svg width="40" height="40" viewBox="0 0 40 40" fill="none" xmlns="http://www.w3.org/2000/svg">
<path d="M37.938 31.0787L13.0508 37.0877C11.7284 37.407 10.3975 36.5938 10.0782 35.2714L4.06938 10.3842C3.75007 9.0618 4.56328 7.7309 5.88568 7.41159L30.7728 1.40275C32.0952 1.08344 33.4261 1.89665 33.7454 3.21906L39.7543 28.1062C40.0736 29.4286 39.2605 30.7595 37.938 31.0787Z" fill="url(#paint0_linear_3491_48913)"/>
<path d="M33.0356 32.2627L37.9389 31.0788C39.2613 30.7595 40.0745 29.4287 39.7552 28.1062L35.1204 8.91028H33.0356V32.2627Z" fill="url(#paint1_linear_3491_48913)"/>
<path d="M35.154 9.05579L33.7447 3.21906C33.4254 1.89665 32.0946 1.08344 30.7721 1.40275L5.88506 7.41159C5.01834 7.62088 4.37049 8.26462 4.1167 9.05579H35.154Z" fill="url(#paint2_linear_3491_48913)"/>
<path d="M7.07324 22.8279L10.0777 35.2715C10.397 36.5939 11.7278 37.4071 13.0503 37.0878L37.9374 31.0789C39.2599 30.7596 40.0731 29.4287 39.7538 28.1063L36.7493 15.6627L7.07324 22.8279Z" fill="url(#paint3_linear_3491_48913)"/>
<path d="M26.8794 38.6666H6.07793C4.93033 38.6666 4 37.7363 4 36.5886L4.0183 9.47278C4.0183 8.32518 4.94863 7.39478 6.09623 7.39478H33.2059C34.3535 7.39478 35.284 8.32511 35.284 9.47278L35.2657 30.2803C35.2657 34.9119 31.511 38.6666 26.8794 38.6666Z" fill="url(#paint4_linear_3491_48913)"/>
<path d="M20.8788 9.91919L18.4043 12.3937L26.026 20.0154C27.2054 19.6511 28.1361 18.7203 28.5005 17.5409L20.8788 9.91919Z" fill="url(#paint5_linear_3491_48913)"/>
<path d="M19.6414 12.9063C20.6077 12.9063 21.3911 12.1229 21.3911 11.1565C21.3911 10.1901 20.6077 9.40674 19.6414 9.40674C18.675 9.40674 17.8916 10.1901 17.8916 11.1565C17.8916 12.1229 18.675 12.9063 19.6414 12.9063Z" fill="url(#paint6_linear_3491_48913)"/>
<path d="M4 23.4386V36.5886C4 37.7362 4.93033 38.6665 6.07793 38.6665H26.8794C31.511 38.6665 35.2657 34.9119 35.2657 30.2803V23.4385H4V23.4386Z" fill="url(#paint7_linear_3491_48913)"/>
<path d="M26.8789 38.6665V32.3583C26.8789 31.2107 27.8092 30.2803 28.9569 30.2803H35.2651C35.2651 34.9119 31.5105 38.6665 26.8789 38.6665Z" fill="url(#paint8_linear_3491_48913)"/>
<path d="M30.3428 20.4222H18.3384C17.909 20.4222 17.561 20.7702 17.561 21.1996C17.561 21.6289 17.909 21.9769 18.3384 21.9769H30.3428C30.7721 21.9769 31.1201 21.6289 31.1201 21.1996C31.1201 20.7702 30.7721 20.4222 30.3428 20.4222Z" fill="white"/>
<path d="M8.93945 21.9769H12.4634C12.8928 21.9769 13.2408 21.6289 13.2408 21.1996C13.2408 20.7702 12.8928 20.4222 12.4634 20.4222H8.93945C8.51011 20.4222 8.16211 20.7702 8.16211 21.1996C8.16211 21.6289 8.51011 21.9769 8.93945 21.9769Z" fill="white"/>
<path d="M14.3804 21.1996C14.3804 21.6289 14.7284 21.9769 15.1577 21.9769H16.0387C16.468 21.9769 16.816 21.6289 16.816 21.1996C16.816 20.7702 16.468 20.4222 16.0387 20.4222H15.1577C14.7285 20.4222 14.3804 20.7702 14.3804 21.1996Z" fill="white"/>
<path d="M20.9439 24.0845H8.93945C8.51011 24.0845 8.16211 24.4325 8.16211 24.8618C8.16211 25.2911 8.51011 25.6392 8.93945 25.6392H20.9439C21.3732 25.6392 21.7212 25.2911 21.7212 24.8618C21.7212 24.4325 21.3732 24.0845 20.9439 24.0845Z" fill="white"/>
<path d="M30.3428 24.0845H26.8188C26.3895 24.0845 26.0415 24.4325 26.0415 24.8618C26.0415 25.2911 26.3895 25.6392 26.8188 25.6392H30.3428C30.7722 25.6392 31.1202 25.2911 31.1202 24.8618C31.1202 24.4325 30.7722 24.0845 30.3428 24.0845Z" fill="white"/>
<path d="M24.1232 24.0845H23.2422C22.8128 24.0845 22.4648 24.4325 22.4648 24.8618C22.4648 25.2911 22.8128 25.6392 23.2422 25.6392H24.1232C24.5525 25.6392 24.9005 25.2911 24.9005 24.8618C24.9005 24.4325 24.5525 24.0845 24.1232 24.0845Z" fill="white"/>
<defs>
<linearGradient id="paint0_linear_3491_48913" x1="12.8811" y1="13.7228" x2="45.3015" y2="33.5189" gradientUnits="userSpaceOnUse">
<stop stop-color="#D9B1EE"/>
<stop offset="1" stop-color="#814AA0"/>
</linearGradient>
<linearGradient id="paint1_linear_3491_48913" x1="38.0822" y1="20.5865" x2="34.5612" y2="20.5865" gradientUnits="userSpaceOnUse">
<stop stop-color="#5B3374" stop-opacity="0"/>
<stop offset="1" stop-color="#5B3374"/>
</linearGradient>
<linearGradient id="paint2_linear_3491_48913" x1="19.6353" y1="4.10627" x2="19.6353" y2="8.6676" gradientUnits="userSpaceOnUse">
<stop stop-color="#5B3374" stop-opacity="0"/>
<stop offset="1" stop-color="#5B3374"/>
</linearGradient>
<linearGradient id="paint3_linear_3491_48913" x1="24.3767" y1="29.4196" x2="26.1115" y2="36.595" gradientUnits="userSpaceOnUse">
<stop stop-color="#5B3374" stop-opacity="0"/>
<stop offset="1" stop-color="#5B3374"/>
</linearGradient>
<linearGradient id="paint4_linear_3491_48913" x1="5.25857" y1="8.64735" x2="34.185" y2="37.5737" gradientUnits="userSpaceOnUse">
<stop stop-color="#FFDD00"/>
<stop offset="1" stop-color="#FFB000"/>
</linearGradient>
<linearGradient id="paint5_linear_3491_48913" x1="23.905" y1="15.4198" x2="13.6206" y2="5.13547" gradientUnits="userSpaceOnUse">
<stop stop-color="#FEA613" stop-opacity="0"/>
<stop offset="1" stop-color="#E94444"/>
</linearGradient>
<linearGradient id="paint6_linear_3491_48913" x1="18.5487" y1="10.0638" x2="20.3363" y2="11.8513" gradientUnits="userSpaceOnUse">
<stop stop-color="#FE93BB"/>
<stop offset="1" stop-color="#FD3581"/>
</linearGradient>
<linearGradient id="paint7_linear_3491_48913" x1="19.6328" y1="33.6749" x2="19.6328" y2="42.4093" gradientUnits="userSpaceOnUse">
<stop stop-color="#FEA613" stop-opacity="0"/>
<stop offset="1" stop-color="#E94444"/>
</linearGradient>
<linearGradient id="paint8_linear_3491_48913" x1="28.7787" y1="32.1801" x2="33.6929" y2="37.0943" gradientUnits="userSpaceOnUse">
<stop stop-color="#FFDD00"/>
<stop offset="1" stop-color="#FFB000"/>
</linearGradient>
</defs>
</svg>
