<svg width="48" height="48" viewBox="0 0 48 48" fill="none" xmlns="http://www.w3.org/2000/svg">
<g clip-path="url(#clip0_3187_39554)">
<path d="M35.4739 35.8118H9.8426C7.45154 35.8118 5.51318 33.8734 5.51318 31.4824C5.51318 29.0913 7.45154 27.153 9.8426 27.153H35.4739V35.8118Z" fill="url(#paint0_linear_3187_39554)"/>
<path d="M5.74989 30.0706C5.59723 30.5132 5.51318 30.9878 5.51318 31.4823C5.51318 33.8734 7.45154 35.8117 9.8426 35.8117H35.4739V30.0706H5.74989Z" fill="url(#paint1_linear_3187_39554)"/>
<path d="M5.56299 32.1411C5.88035 34.2195 7.67555 35.8117 9.84261 35.8117H35.474V32.1411H5.56299Z" fill="url(#paint2_linear_3187_39554)"/>
<path d="M36.7604 36.9882H9.8428C6.80684 36.9882 4.33691 34.5183 4.33691 31.4823C4.33691 28.4464 6.80684 25.9764 9.8428 25.9764H36.7604C37.4101 25.9764 37.9369 26.5031 37.9369 27.1529C37.9369 27.8027 37.4101 28.3294 36.7604 28.3294H9.8428C8.10426 28.3294 6.68986 29.7438 6.68986 31.4823C6.68986 33.2209 8.10426 34.6353 9.8428 34.6353H36.7604C37.4101 34.6353 37.9369 35.1619 37.9369 35.8117C37.9369 36.4615 37.4101 36.9882 36.7604 36.9882Z" fill="url(#paint3_linear_3187_39554)"/>
<path d="M4.33927 31.3882C4.3387 31.4196 4.33691 31.4508 4.33691 31.4823C4.33691 34.5183 6.80684 36.9882 9.8428 36.9882H36.7604C37.4101 36.9882 37.9369 36.4615 37.9369 35.8117C37.9369 35.1619 37.4101 34.6352 36.7604 34.6352H9.8428C8.10426 34.6352 6.68986 33.2208 6.68986 31.4823C6.68986 31.4508 6.69127 31.4195 6.69221 31.3882H4.33927Z" fill="url(#paint4_linear_3187_39554)"/>
<path d="M41.2 46.8235H15.5687C13.1776 46.8235 11.2393 44.8851 11.2393 42.4941C11.2393 40.103 13.1776 38.1647 15.5687 38.1647H41.2V46.8235Z" fill="url(#paint5_linear_3187_39554)"/>
<path d="M11.476 41.0823C11.3233 41.5249 11.2393 41.9995 11.2393 42.494C11.2393 44.8851 13.1776 46.8235 15.5687 46.8235H41.2V41.0823H11.476Z" fill="url(#paint6_linear_3187_39554)"/>
<path d="M11.2891 43.1528C11.6063 45.2312 13.4015 46.8234 15.5687 46.8234H41.2V43.1528H11.2891Z" fill="url(#paint7_linear_3187_39554)"/>
<path d="M19.5296 41.0823L16.0581 44.146L18.7356 46.8235H25.2708L19.5296 41.0823Z" fill="url(#paint8_linear_3187_39554)"/>
<path d="M17.9827 43.2378L18.833 44.0881C19.09 44.3451 19.5295 44.1631 19.5295 43.7996V41.0823H16.0724C15.9545 41.0823 15.8589 41.1779 15.8589 41.2958V43.7996C15.8589 44.1631 16.2983 44.3451 16.5554 44.0881L17.4057 43.2378C17.5651 43.0784 17.8234 43.0784 17.9827 43.2378Z" fill="url(#paint9_linear_3187_39554)"/>
<path d="M42.4865 47.9999H15.5689C12.5329 47.9999 10.063 45.53 10.063 42.494C10.063 39.4581 12.5329 36.9882 15.5689 36.9882H42.4865C43.1362 36.9882 43.663 37.5148 43.663 38.1646C43.663 38.8144 43.1362 39.3411 42.4865 39.3411H15.5689C13.8303 39.3411 12.4159 40.7555 12.4159 42.494C12.4159 44.2326 13.8303 45.647 15.5689 45.647H42.4865C43.1362 45.647 43.663 46.1737 43.663 46.8235C43.663 47.4732 43.1362 47.9999 42.4865 47.9999Z" fill="url(#paint10_linear_3187_39554)"/>
<path d="M10.0653 42.3999C10.0648 42.4313 10.063 42.4625 10.063 42.494C10.063 45.53 12.5329 47.9999 15.5689 47.9999H42.4865C43.1362 47.9999 43.663 47.4732 43.663 46.8234C43.663 46.1736 43.1362 45.647 42.4865 45.647H15.5689C13.8303 45.647 12.4159 44.2326 12.4159 42.494C12.4159 42.4625 12.4174 42.4312 12.4183 42.3999H10.0653Z" fill="url(#paint11_linear_3187_39554)"/>
<path d="M35.1475 7.74655C33.8678 6.14091 32.0544 5.20265 30.0414 5.10448C29.923 5.09874 29.8031 5.09583 29.6851 5.09583C28.6499 5.09583 27.6467 5.31512 26.7294 5.73112C25.9216 6.09752 25.0451 6.28764 24.1581 6.28764H23.8416C22.9546 6.28764 22.0781 6.09752 21.2701 5.73112C20.353 5.31512 19.3499 5.09583 18.3148 5.09583C18.1967 5.09583 18.0767 5.09874 17.9584 5.10448C15.9454 5.20265 14.1322 6.14091 12.8525 7.74646C11.4707 9.4802 10.9053 11.7493 11.3014 13.9721C11.4013 14.533 12.418 17.0731 13.3089 19.2366C14.0573 21.0538 15.0601 22.7531 16.2861 24.2844C16.6934 24.7931 17.2119 25.2016 17.7951 25.4922C18.9295 26.0574 20.2465 26.1309 21.4367 25.6955L22.4155 25.3375C23.4387 24.9632 24.5614 24.9632 25.5847 25.3375L26.5634 25.6955C27.7536 26.1309 29.0706 26.0574 30.205 25.4922C30.7883 25.2016 31.3068 24.7931 31.714 24.2844C32.9401 22.753 33.9429 21.0538 34.6912 19.2365C35.5821 17.073 36.5988 14.5329 36.6987 13.972C37.0946 11.7494 36.5293 9.4802 35.1475 7.74655Z" fill="url(#paint12_linear_3187_39554)"/>
<path d="M35.1476 7.74655C33.8679 6.14091 32.0545 5.20265 30.0415 5.10448C29.9231 5.09874 29.8032 5.09583 29.6852 5.09583C28.65 5.09583 27.6468 5.31512 26.7295 5.73112C25.9217 6.09752 25.0452 6.28764 24.1582 6.28764H23.8417C22.9547 6.28764 22.0782 6.09752 21.2703 5.73112C20.3531 5.31512 19.35 5.09583 18.3149 5.09583C18.2049 5.09583 18.0933 5.09893 17.9829 5.10392V5.97959L33.561 21.5576C33.985 20.8094 34.3627 20.0344 34.6911 19.2365C35.5821 17.073 36.5987 14.5329 36.6986 13.972C37.0947 11.7494 36.5294 9.4802 35.1476 7.74655Z" fill="url(#paint13_linear_3187_39554)"/>
<path d="M12.7554 17.8823C12.9392 18.3361 13.1266 18.7942 13.3088 19.2366C14.0571 21.0539 15.0599 22.7532 16.286 24.2845C16.6933 24.7932 17.2117 25.2016 17.795 25.4923C18.9294 26.0574 20.2464 26.131 21.4366 25.6956L22.4153 25.3375C23.4386 24.9632 24.5613 24.9632 25.5845 25.3375L26.5633 25.6956C27.7535 26.131 29.0705 26.0574 30.2049 25.4923C30.7881 25.2016 31.3066 24.7932 31.7139 24.2845C32.9399 22.7531 33.9428 21.0538 34.6911 19.2366C34.8733 18.7941 35.0607 18.336 35.2445 17.8822H12.7554V17.8823Z" fill="url(#paint14_linear_3187_39554)"/>
<path d="M23.9997 9.09805C26.8066 9.09805 29.0821 7.45467 29.0821 5.42747C29.0821 5.32544 29.0748 5.22474 29.0636 5.12488C28.2492 5.19481 27.4616 5.39914 26.7293 5.73128C25.9215 6.09768 25.045 6.2878 24.158 6.2878H23.8415C22.9545 6.2878 22.078 6.09768 21.27 5.73128C20.5378 5.39923 19.7503 5.19481 18.936 5.12497C18.9247 5.22483 18.9175 5.32554 18.9175 5.42756C18.9174 7.45467 21.1929 9.09805 23.9997 9.09805Z" fill="url(#paint15_linear_3187_39554)"/>
<path d="M22.259 1.70348C23.4788 2.92325 24.0323 4.59176 23.9555 6.34348C23.9238 7.0664 23.3456 7.64456 22.6228 7.67619C20.8711 7.75299 19.2025 7.19939 17.9828 5.97972C16.7631 4.76005 16.2095 3.09143 16.2863 1.33972C16.318 0.616798 16.8962 0.0386337 17.619 0.0070102C19.3707 -0.0697898 21.0392 0.483716 22.259 1.70348Z" fill="url(#paint16_linear_3187_39554)"/>
<path d="M22.6228 7.67621C20.8711 7.75301 19.2025 7.19941 17.9828 5.97974C16.7631 4.76007 16.2095 3.09155 16.2863 1.33974C16.3021 0.978232 16.4546 0.653055 16.6935 0.414185L23.5483 7.26906C23.3095 7.50793 22.9842 7.6604 22.6228 7.67621Z" fill="url(#paint17_linear_3187_39554)"/>
<path d="M27.6255 1.25929C26.9676 1.78165 25.5069 3.41459 24.866 6.24659C24.6768 7.08424 24.5591 8.02635 24.5554 9.07671C24.3728 9.09083 24.1874 9.09835 24.0001 9.09835C23.6725 9.09835 23.3516 9.07577 23.041 9.03247C23.0787 8.02635 23.2001 7.10588 23.3789 6.27012C24.0848 2.97977 25.698 0.988236 26.7474 0.153412C27.0523 -0.0884703 27.4965 -0.038588 27.7394 0.267294C27.9822 0.572236 27.9314 1.01647 27.6255 1.25929Z" fill="url(#paint18_linear_3187_39554)"/>
</g>
<defs>
<linearGradient id="paint0_linear_3187_39554" x1="20.4238" y1="29.6643" x2="23.9375" y2="37.0055" gradientUnits="userSpaceOnUse">
<stop stop-color="#E6EEFF"/>
<stop offset="1" stop-color="#BAC8FA"/>
</linearGradient>
<linearGradient id="paint1_linear_3187_39554" x1="21.1054" y1="30.9333" x2="22.7367" y2="24.4079" gradientUnits="userSpaceOnUse">
<stop stop-color="#A7B7F1" stop-opacity="0"/>
<stop offset="1" stop-color="#A7B7F1"/>
</linearGradient>
<linearGradient id="paint2_linear_3187_39554" x1="20.506" y1="34.1168" x2="20.8824" y2="29.9129" gradientUnits="userSpaceOnUse">
<stop stop-color="#A7B7F1" stop-opacity="0"/>
<stop offset="1" stop-color="#A7B7F1"/>
</linearGradient>
<linearGradient id="paint3_linear_3187_39554" x1="4.33691" y1="31.4823" x2="37.9369" y2="31.4823" gradientUnits="userSpaceOnUse">
<stop stop-color="#FEE45A"/>
<stop offset="1" stop-color="#FEA613"/>
</linearGradient>
<linearGradient id="paint4_linear_3187_39554" x1="21.1369" y1="34.3999" x2="21.1369" y2="37.0352" gradientUnits="userSpaceOnUse">
<stop stop-color="#FE7701" stop-opacity="0"/>
<stop offset="0.1854" stop-color="#F87204" stop-opacity="0.185"/>
<stop offset="0.4314" stop-color="#E7630C" stop-opacity="0.431"/>
<stop offset="0.7114" stop-color="#CB4B19" stop-opacity="0.711"/>
<stop offset="1" stop-color="#A72B2B"/>
</linearGradient>
<linearGradient id="paint5_linear_3187_39554" x1="26.1498" y1="40.676" x2="29.6635" y2="48.0172" gradientUnits="userSpaceOnUse">
<stop stop-color="#E6EEFF"/>
<stop offset="1" stop-color="#BAC8FA"/>
</linearGradient>
<linearGradient id="paint6_linear_3187_39554" x1="26.8314" y1="41.9451" x2="28.4628" y2="35.4196" gradientUnits="userSpaceOnUse">
<stop stop-color="#A7B7F1" stop-opacity="0"/>
<stop offset="1" stop-color="#A7B7F1"/>
</linearGradient>
<linearGradient id="paint7_linear_3187_39554" x1="26.232" y1="45.1285" x2="26.6085" y2="40.9246" gradientUnits="userSpaceOnUse">
<stop stop-color="#A7B7F1" stop-opacity="0"/>
<stop offset="1" stop-color="#A7B7F1"/>
</linearGradient>
<linearGradient id="paint8_linear_3187_39554" x1="22.3259" y1="47.1254" x2="17.4945" y2="42.3254" gradientUnits="userSpaceOnUse">
<stop stop-color="#A7B7F1" stop-opacity="0"/>
<stop offset="1" stop-color="#A7B7F1"/>
</linearGradient>
<linearGradient id="paint9_linear_3187_39554" x1="16.9363" y1="41.7682" x2="19.1516" y2="43.9835" gradientUnits="userSpaceOnUse">
<stop stop-color="#FE93BB"/>
<stop offset="1" stop-color="#FE0364"/>
</linearGradient>
<linearGradient id="paint10_linear_3187_39554" x1="10.063" y1="42.494" x2="43.663" y2="42.494" gradientUnits="userSpaceOnUse">
<stop stop-color="#09A76D"/>
<stop offset="1" stop-color="#026841"/>
</linearGradient>
<linearGradient id="paint11_linear_3187_39554" x1="26.863" y1="45.4117" x2="26.863" y2="48.047" gradientUnits="userSpaceOnUse">
<stop stop-color="#026841" stop-opacity="0"/>
<stop offset="1" stop-color="#433F43"/>
</linearGradient>
<linearGradient id="paint12_linear_3187_39554" x1="19.6448" y1="9.92867" x2="31.8705" y2="22.1544" gradientUnits="userSpaceOnUse">
<stop stop-color="#FD4755"/>
<stop offset="1" stop-color="#A72B2B"/>
</linearGradient>
<linearGradient id="paint13_linear_3187_39554" x1="29.7328" y1="10.7744" x2="18.5014" y2="1.61366" gradientUnits="userSpaceOnUse">
<stop stop-color="#A72B2B" stop-opacity="0"/>
<stop offset="1" stop-color="#42210B"/>
</linearGradient>
<linearGradient id="paint14_linear_3187_39554" x1="23.9999" y1="20.4705" x2="23.9999" y2="26.8733" gradientUnits="userSpaceOnUse">
<stop stop-color="#A72B2B" stop-opacity="0"/>
<stop offset="1" stop-color="#42210B"/>
</linearGradient>
<linearGradient id="paint15_linear_3187_39554" x1="23.9997" y1="6.71368" x2="23.9997" y2="11.5488" gradientUnits="userSpaceOnUse">
<stop stop-color="#A72B2B" stop-opacity="0"/>
<stop offset="1" stop-color="#42210B"/>
</linearGradient>
<linearGradient id="paint16_linear_3187_39554" x1="22.7228" y1="1.22423" x2="17.0818" y2="6.86525" gradientUnits="userSpaceOnUse">
<stop stop-color="#CCFC5C"/>
<stop offset="0.1591" stop-color="#C6F95A"/>
<stop offset="0.3653" stop-color="#B6F053"/>
<stop offset="0.5975" stop-color="#9BE248"/>
<stop offset="0.8469" stop-color="#76CF38"/>
<stop offset="1" stop-color="#5CC12D"/>
</linearGradient>
<linearGradient id="paint17_linear_3187_39554" x1="17.7691" y1="5.22564" x2="22.9327" y2="2.23275" gradientUnits="userSpaceOnUse">
<stop stop-color="#026841" stop-opacity="0"/>
<stop offset="1" stop-color="#006E66"/>
</linearGradient>
<linearGradient id="paint18_linear_3187_39554" x1="24.069" y1="3.32537" x2="27.2148" y2="6.47115" gradientUnits="userSpaceOnUse">
<stop stop-color="#5A5A5A"/>
<stop offset="1" stop-color="#444444"/>
</linearGradient>
<clipPath id="clip0_3187_39554">
<rect width="48" height="48" fill="white"/>
</clipPath>
</defs>
</svg>
